<?xml version="1.0" encoding="UTF-8" standalone="no"?>
<svg width="274px" height="72px" viewBox="0 0 274 72" version="1.1" xmlns="http://www.w3.org/2000/svg" xmlns:xlink="http://www.w3.org/1999/xlink" xmlns:sketch="http://www.bohemiancoding.com/sketch/ns">
    <!-- Generator: Sketch 3.3.2 (12043) - http://www.bohemiancoding.com/sketch -->
    <title>kelnly-logo-black</title>
    <desc>Created with Sketch.</desc>
    <defs></defs>
    <g id="Page-1" stroke="none" stroke-width="1" fill="none" fill-rule="evenodd" sketch:type="MSPage">
        <g id="logo-watermelon" sketch:type="MSArtboardGroup" transform="translate(-43.000000, -327.000000)" fill="#000000">
            <g id="kelnly-logo-black" sketch:type="MSLayerGroup" transform="translate(43.000000, 324.000000)">
                <text id="klenly" sketch:type="MSTextLayer" font-family="Aovel Sans" font-size="77" font-weight="normal" letter-spacing="6.06299257">
                    <tspan x="76" y="61">klenly</tspan>
                </text>
                <g id="klenly-icon" transform="translate(0.000000, 3.000000)" sketch:type="MSShapeGroup">
                    <path d="M52.6187307,12.2064953 C47.4482761,7.03536404 40.3039678,3.83605644 32.412613,3.83605644 C24.5219349,3.83605644 17.3776266,7.03536404 12.2058187,12.2064953 C7.03536404,17.3769499 3.83673311,24.5219349 3.83673311,32.412613 C3.83673311,40.3032911 7.03536404,47.4475994 12.2058187,52.6187307 C17.3776266,57.789862 24.5219349,60.9878163 32.412613,60.9878163 C40.3039678,60.9878163 47.4482761,57.789862 52.6187307,52.6187307 C57.789862,47.4475994 60.988493,40.3032911 60.988493,32.412613 C60.988493,24.5219349 57.789862,17.3769499 52.6187307,12.2064953 L52.6187307,12.2064953 Z M32.412613,0 C41.3622836,0 49.4654368,3.62831798 55.3315108,9.49439193 C61.1969081,15.3597892 64.8245494,23.4622658 64.8245494,32.412613 C64.8245494,41.3616069 61.1969081,49.4654368 55.3315108,55.3308341 C49.4654368,61.1962314 41.3622836,64.8245494 32.412613,64.8245494 C23.4629425,64.8245494 15.3597892,61.1962314 9.49439193,55.3308341 C3.62899465,49.4654368 0,41.3616069 0,32.412613 C0,23.4622658 3.62899465,15.3597892 9.49439193,9.49439193 C15.3597892,3.62831798 23.4629425,0 32.412613,0 L32.412613,0 Z" id="Fill-23"></path>
                    <path d="M25.4520436,39.3126426 L23.8544199,39.3126426 L17.2480662,44.1041606 L19.8762622,45.1252594 L25.4520436,39.3126426 L25.4520436,39.3126426 Z M41.024308,39.3126426 L42.6212551,39.3126426 L49.2282855,44.1041606 L46.5994128,45.1252594 L41.024308,39.3126426 L41.024308,39.3126426 Z M32.5855252,39.3126426 L33.8908265,39.3126426 L34.6805033,46.6295024 L31.7951717,46.6295024 L32.5855252,39.3126426 L32.5855252,39.3126426 Z M41.799098,44.8775973 C42.0745037,44.8775973 42.3329926,44.9500012 42.5569712,45.0772156 C43.4352922,45.5224662 43.8257322,47.3000848 46.8991787,46.8683678 C49.4015136,46.5171747 52.3470691,44.966918 54.0238635,43.7103372 C54.9921819,42.9849443 55.5991571,42.4808232 55.6411108,43.0343414 C55.8177223,45.386455 52.956751,47.5673705 51.1141718,48.4693749 C49.9848053,49.0222164 48.7356679,49.4437833 47.5203641,49.6501684 C46.2306263,49.8707637 44.9456252,49.8585836 43.8237022,49.5263374 C43.4508556,49.4160398 43.0983093,49.2719085 42.7680931,49.0925903 C39.8563713,55.4215082 26.6199804,55.4221849 23.7075819,49.0925903 C23.3780424,49.2719085 23.0248194,49.4160398 22.6526495,49.5263374 C21.5300498,49.8585836 20.2457254,49.8707637 18.9553109,49.6501684 C17.7406838,49.4437833 16.4915463,49.0222164 15.3621799,48.4693749 C13.518924,47.5673705 10.6579526,45.386455 10.8345642,43.0343414 C10.8765179,42.4808232 11.4834931,42.9849443 12.4524881,43.7103372 C14.1286059,44.966918 17.074838,46.5171747 19.5771729,46.8683678 C22.6506195,47.3000848 23.0410595,45.5224662 23.9193804,45.0772156 C24.1426823,44.9500012 24.4011712,44.8775973 24.676577,44.8775973 C25.4188867,44.8775973 25.7781998,45.6029902 26.0921758,46.3662768 C28.0930964,51.2335821 38.3819019,51.2498222 40.3834992,46.3662768 C40.6961219,45.6029902 41.0567883,44.8775973 41.799098,44.8775973 L41.799098,44.8775973 Z M22.9537688,25.1627438 L15.1131644,13.3236816 C17.2325027,11.4608022 19.6461935,9.92543232 22.2750662,8.79674258 L31.9548664,23.4128687 L50.1147265,29.6402858 C50.9680105,29.9386983 51.572279,30.4570295 51.572279,31.4388813 L51.572279,35.7716153 C51.572279,36.7791807 50.7480919,37.6026911 49.7405266,37.6026911 L15.7316431,37.6026911 C14.7247544,37.6026911 13.9005673,36.7791807 13.9005673,35.7716153 L13.9005673,31.4388813 C13.9005673,30.6918348 14.3762681,30.1132799 15.0258737,29.7499067 L22.9537688,25.1627438 L22.9537688,25.1627438 Z" id="Fill-24"></path>
                </g>
            </g>
        </g>
    </g>
</svg>