<?xml version="1.0" encoding="UTF-8" standalone="no"?>
<svg width="27px" height="39px" viewBox="0 0 27 39" version="1.1" xmlns="http://www.w3.org/2000/svg" xmlns:xlink="http://www.w3.org/1999/xlink" xmlns:sketch="http://www.bohemiancoding.com/sketch/ns">
    <!-- Generator: Sketch 3.3.3 (12081) - http://www.bohemiancoding.com/sketch -->
    <title>ico-interiorWindows-active</title>
    <desc>Created with Sketch.</desc>
    <defs></defs>
    <g id="Page-1" stroke="none" stroke-width="1" fill="none" fill-rule="evenodd" sketch:type="MSPage">
        <g id="organization-jobDetailView" sketch:type="MSArtboardGroup" transform="translate(-272.000000, -1044.000000)" fill="#70D6DF">
            <g id="Additional-Services" sketch:type="MSLayerGroup" transform="translate(69.000000, 829.000000)">
                <g id="Interior-Windows" transform="translate(191.000000, 215.000000)" sketch:type="MSShapeGroup">
                    <path d="M38.8639811,38.8871321 L12,38.8871321 L12,5.75558491 L12.2572642,5.49832075 C15.764717,1.98424528 20.4616981,0 25.4322453,0 C30.402283,0 35.0997736,1.98424528 38.606717,5.49832075 L38.8639811,5.75558491 L38.8639811,38.8871321 L38.8639811,38.8871321 Z M26.3094906,1.77792453 L26.3094906,9.51979245 L30.9779434,9.51979245 L30.9779434,2.69643396 C29.5046604,2.17884906 27.9381509,1.86198113 26.3094906,1.77792453 L26.3094906,1.77792453 Z M32.4405283,3.28839623 L32.4405283,9.51979245 L37.1089811,9.51979245 L37.1089811,6.48 C35.7467547,5.17024528 34.170566,4.08616981 32.4405283,3.28839623 L32.4405283,3.28839623 Z M32.4405283,18.8144151 L37.1089811,18.8144151 L37.1089811,10.9823774 L32.4405283,10.9823774 L32.4405283,18.8144151 Z M32.4405283,28.1090377 L37.1089811,28.1090377 L37.1089811,20.277 L32.4405283,20.277 L32.4405283,28.1090377 Z M32.4405283,37.1326415 L37.1089811,37.1326415 L37.1089811,29.5711132 L32.4405283,29.5711132 L32.4405283,37.1326415 Z M26.3094906,37.1326415 L30.9779434,37.1326415 L30.9779434,29.5711132 L26.3094906,29.5711132 L26.3094906,37.1326415 Z M19.8860377,37.1326415 L24.5544906,37.1326415 L24.5544906,29.5711132 L19.8860377,29.5711132 L19.8860377,37.1326415 Z M13.7555094,37.1326415 L18.4239623,37.1326415 L18.4239623,29.5711132 L13.7555094,29.5711132 L13.7555094,37.1326415 Z M13.7555094,28.1090377 L18.4239623,28.1090377 L18.4239623,20.277 L13.7555094,20.277 L13.7555094,28.1090377 Z M13.7555094,18.8144151 L18.4239623,18.8144151 L18.4239623,10.9823774 L13.7555094,10.9823774 L13.7555094,18.8144151 Z M13.7555094,9.51979245 L18.4239623,9.51979245 L18.4239623,3.28839623 C16.6934151,4.08616981 15.1177358,5.17024528 13.7555094,6.48 L13.7555094,9.51979245 L13.7555094,9.51979245 Z M19.8860377,2.69643396 L19.8860377,9.51979245 L24.5544906,9.51979245 L24.5544906,1.77792453 C22.9268491,1.86198113 21.3598302,2.17884906 19.8860377,2.69643396 L19.8860377,2.69643396 Z M19.8860377,28.1090377 L24.5544906,28.1090377 L24.5544906,20.277 L19.8860377,20.277 L19.8860377,28.1090377 Z M19.8860377,18.8144151 L24.5544906,18.8144151 L24.5544906,10.9823774 L19.8860377,10.9823774 L19.8860377,18.8144151 Z M26.3094906,18.8144151 L30.9779434,18.8144151 L30.9779434,10.9823774 L26.3094906,10.9823774 L26.3094906,18.8144151 Z M26.3094906,28.1090377 L30.9779434,28.1090377 L30.9779434,20.277 L26.3094906,20.277 L26.3094906,28.1090377 Z" id="ico-interiorWindows-active"></path>
                </g>
            </g>
        </g>
    </g>
</svg>