<?xml version="1.0" encoding="UTF-8" standalone="no"?>
<svg width="31px" height="21px" viewBox="0 0 31 21" version="1.1" xmlns="http://www.w3.org/2000/svg" xmlns:xlink="http://www.w3.org/1999/xlink" xmlns:sketch="http://www.bohemiancoding.com/sketch/ns">
    <!-- Generator: Sketch 3.3.2 (12043) - http://www.bohemiancoding.com/sketch -->
    <title>ico-cc-hover</title>
    <desc>Created with Sketch.</desc>
    <defs></defs>
    <g id="icons" stroke="none" stroke-width="1" fill="none" fill-rule="evenodd" sketch:type="MSPage">
        <g sketch:type="MSArtboardGroup" transform="translate(-735.000000, -44.000000)" id="ico-cc-hover" fill="#EF536D">
            <g sketch:type="MSLayerGroup" transform="translate(735.000000, 44.000000)">
                <path d="M0.0113564356,17.032505 C0.0113564356,18.7206238 1.39254455,20.1018119 3.08066337,20.1018119 L27.6351188,20.1018119 C29.3232376,20.1018119 30.7044257,18.7206238 30.7044257,17.032505 L30.7044257,9.16310891 L0.0113564356,9.16310891 L0.0113564356,17.032505 L0.0113564356,17.032505 Z M4.46829703,13.8502475 L15.3431584,13.8502475 L15.3431584,15.6918317 L4.46829703,15.6918317 L4.46829703,13.8502475 Z" id="Fill-1" sketch:type="MSShapeGroup"></path>
                <path d="M27.6351188,0.151316832 L3.08066337,0.151316832 C1.39254455,0.151316832 0.0113564356,1.53250495 0.0113564356,3.22062376 L0.0113564356,4.86607921 L30.7044257,4.86607921 L30.7044257,3.22062376 C30.7044257,1.53250495 29.3232376,0.151316832 27.6351188,0.151316832" id="Fill-2" sketch:type="MSShapeGroup"></path>
            </g>
        </g>
    </g>
</svg>