<?xml version="1.0" encoding="UTF-8" standalone="no"?>
<svg width="34px" height="38px" viewBox="0 0 34 38" version="1.1" xmlns="http://www.w3.org/2000/svg" xmlns:xlink="http://www.w3.org/1999/xlink" xmlns:sketch="http://www.bohemiancoding.com/sketch/ns">
    <!-- Generator: Sketch 3.3.2 (12043) - http://www.bohemiancoding.com/sketch -->
    <title>ico-cal-hover</title>
    <desc>Created with Sketch.</desc>
    <defs></defs>
    <g id="icons" stroke="none" stroke-width="1" fill="none" fill-rule="evenodd" sketch:type="MSPage">
        <g sketch:type="MSArtboardGroup" transform="translate(-134.000000, -35.000000)" id="ico-cal-hover" fill="#EF536D">
            <g sketch:type="MSLayerGroup" transform="translate(134.000000, 35.000000)">
                <path d="M3.88286538,11.2419038 L3.88286538,27.3768654 C3.88286538,28.42825 4.73842308,29.2834808 5.79013462,29.2834808 L14.7216731,29.2834808 C14.7190577,29.1746154 14.7167692,29.0654231 14.7167692,28.9555769 C14.7167692,26.1286731 15.8181731,23.4711154 17.8173077,21.4716538 C19.8157885,19.4728462 22.474,18.3717692 25.3018846,18.3717692 C25.4718846,18.3717692 25.6412308,18.3760192 25.8115577,18.3838654 L25.8115577,11.2419038 L3.88286538,11.2419038" id="Fill-1" sketch:type="MSShapeGroup"></path>
                <path d="M5.79013462,33.0967115 L15.555,33.0967115 C15.2944423,32.4837308 15.0933846,31.8462308 14.9521538,31.1900962 L5.79013462,31.1900962 C3.68409615,31.1900962 1.97625,29.4825769 1.97625,27.3768654 L1.97625,9.26238462 C1.97625,7.15569231 3.68409615,5.4485 5.79013462,5.4485 L6.66432692,5.4485 L6.66432692,3.54188462 L5.79013462,3.54188462 C2.63598077,3.54188462 0.0702884615,6.10790385 0.0702884615,9.26238462 L0.0702884615,27.3768654 C0.0702884615,30.5306923 2.63598077,33.0967115 5.79013462,33.0967115" id="Fill-2" sketch:type="MSShapeGroup"></path>
                <path d="M23.9049423,5.4485 C26.0113077,5.4485 27.7188269,7.15569231 27.7188269,9.26238462 L27.7188269,18.6483462 C28.3746346,18.8006923 29.0124615,19.0154808 29.6254423,19.2891154 L29.6254423,9.26238462 C29.6254423,6.10790385 27.0587692,3.54188462 23.9049423,3.54188462 L23.0314038,3.54188462 L23.0314038,5.4485 L23.9049423,5.4485" id="Fill-3" sketch:type="MSShapeGroup"></path>
                <path d="M11.7496154,3.54188462 L17.9464423,3.54188462 L17.9464423,5.4485 L11.7496154,5.4485 L11.7496154,3.54188462 Z" id="Fill-4" sketch:type="MSShapeGroup"></path>
                <path d="M9.20615385,7.56728846 C9.90838462,7.56728846 10.4782115,6.99811538 10.4782115,6.29588462 L10.4782115,1.42276923 C10.4782115,0.720538462 9.90838462,0.151365385 9.20615385,0.151365385 C8.50523077,0.151365385 7.93540385,0.720538462 7.93540385,1.42276923 L7.93540385,6.29588462 C7.93540385,6.99811538 8.50523077,7.56728846 9.20615385,7.56728846" id="Fill-5" sketch:type="MSShapeGroup"></path>
                <path d="M20.4885962,7.56728846 C21.1905,7.56728846 21.76,6.99811538 21.76,6.29588462 L21.76,1.42276923 C21.76,0.720538462 21.1905,0.151365385 20.4885962,0.151365385 C19.7863654,0.151365385 19.2168654,0.720538462 19.2168654,1.42276923 L19.2168654,6.29588462 C19.2168654,6.99811538 19.7863654,7.56728846 20.4885962,7.56728846" id="Fill-6" sketch:type="MSShapeGroup"></path>
                <path d="M16.6436538,28.9555769 C16.6436538,33.7365 20.5196538,37.6125 25.3018846,37.6125 C30.0828077,37.6125 33.9578269,33.7365 33.9578269,28.9555769 C33.9578269,24.1749808 30.0828077,20.2986538 25.3018846,20.2986538 C20.5196538,20.2986538 16.6436538,24.1749808 16.6436538,28.9555769 L16.6436538,28.9555769 Z M26.9404231,25.4414808 L26.9404231,27.4945577 L28.9928462,27.4945577 C29.5254038,27.4945577 29.9569423,27.9264231 29.9569423,28.4583269 L29.9569423,29.8023077 C29.9569423,30.3345385 29.5254038,30.7654231 28.9928462,30.7654231 L26.9404231,30.7654231 L26.9404231,32.8191538 C26.9404231,33.3510577 26.5082308,33.7829231 25.9756731,33.7829231 L24.6320192,33.7829231 C24.1004423,33.7829231 23.66825,33.3510577 23.66825,32.8191538 L23.66825,30.7654231 L21.6148462,30.7654231 C21.0832692,30.7654231 20.6520577,30.3345385 20.6520577,29.8023077 L20.6520577,28.4583269 C20.6520577,27.9264231 21.0832692,27.4945577 21.6148462,27.4945577 L23.66825,27.4945577 L23.66825,25.4414808 C23.66825,24.9089231 24.1004423,24.4780385 24.6320192,24.4780385 L25.9756731,24.4780385 C26.5082308,24.4780385 26.9404231,24.9089231 26.9404231,25.4414808 L26.9404231,25.4414808 Z" id="Fill-7" sketch:type="MSShapeGroup"></path>
            </g>
        </g>
    </g>
</svg>