<?xml version="1.0" encoding="UTF-8" standalone="no"?>
<svg width="18px" height="19px" viewBox="0 0 18 19" version="1.1" xmlns="http://www.w3.org/2000/svg" xmlns:xlink="http://www.w3.org/1999/xlink" xmlns:sketch="http://www.bohemiancoding.com/sketch/ns">
    <!-- Generator: Sketch 3.3.3 (12081) - http://www.bohemiancoding.com/sketch -->
    <title>ico-dog</title>
    <desc>Created with Sketch.</desc>
    <defs></defs>
    <g id="Page-1" stroke="none" stroke-width="1" fill="none" fill-rule="evenodd" sketch:type="MSPage">
        <g id="organization-jobDetailView" sketch:type="MSArtboardGroup" transform="translate(-193.000000, -1859.000000)" fill="#4A4A4A">
            <g id="Pets" sketch:type="MSLayerGroup" transform="translate(69.000000, 1857.000000)">
                <g id="CATS-+-DOGS" transform="translate(124.000000, 0.000000)" sketch:type="MSShapeGroup">
                    <g id="DOGS" transform="translate(0.000000, 2.000000)">
                        <g id="ico-dog">
                            <path d="M13.8890418,8.70859101 C11.9073651,8.70859101 10.8921559,6.12759478 10.8731207,1.03626321 C10.8722555,0.949739698 10.8722555,0.884270244 10.8711019,0.843604196 C10.8673525,0.681516826 10.9290726,0.526928159 11.0453025,0.408390954 C11.2437298,0.205060712 11.5788642,0.118537205 12.1663588,0.118537205 C13.2649189,0.118537205 17.5639836,0.680074767 17.5639836,2.27037683 C17.5639836,3.94056893 16.8888118,8.70859101 13.8890418,8.70859101 L13.8890418,8.70859101 Z M11.8496827,1.10923136 C11.875063,5.25803354 12.6353162,7.73231743 13.8890418,7.73231743 C16.1075045,7.73231743 16.5874216,3.35422796 16.5874216,2.27037683 C16.4184123,1.83747088 13.9184598,1.09509919 12.1663588,1.09509919 C12.0276327,1.09509919 11.9246698,1.10115584 11.8496827,1.10923136 L11.8496827,1.10923136 Z" id="Fill-1"></path>
                            <path d="M3.7793468,8.70859101 C0.779865212,8.70859101 0.104693444,3.94056893 0.104693444,2.27037683 C0.104693444,0.680074767 4.40404652,0.118537205 5.50318347,0.118537205 C6.09067809,0.118537205 6.42552406,0.205349124 6.62423972,0.408390954 C6.7398928,0.527216571 6.80161291,0.681805237 6.79757514,0.843892607 C6.79699832,0.884270244 6.7964215,0.949739698 6.7964215,1.03626321 C6.7768095,6.12759478 5.76188876,8.70859101 3.7793468,8.70859101 L3.7793468,8.70859101 Z M5.50318347,1.09509919 C3.75050563,1.09509919 1.25112991,1.83747088 1.07865972,2.29229612 C1.08125543,3.35422796 1.56146089,7.73231743 3.7793468,7.73231743 C5.03336083,7.73231743 5.79447928,5.25803354 5.81928269,1.10923136 C5.74487247,1.10115584 5.64162109,1.09509919 5.50318347,1.09509919 L5.50318347,1.09509919 Z" id="Fill-2"></path>
                            <path d="M9.45038587,18.1644567 L8.21915637,18.1644567 C6.78949961,18.1644567 5.45040413,16.6765408 4.81099542,15.294472 C4.74004614,15.1297889 3.21002212,11.5468505 2.74135312,9.82560948 C2.7407763,9.82560948 2.40996809,8.80261322 2.08781223,7.83239629 L1.56578707,6.26401351 L2.85556415,7.29681578 C3.16358784,7.54340777 3.49670334,7.66309863 3.87452266,7.66309863 C4.92059186,7.66309863 5.64133267,5.92686025 5.85100797,2.89911432 L5.87898391,2.49533795 L6.28074139,2.44803843 C6.66865512,2.40246938 7.02224785,2.37997327 7.36142,2.37997327 L10.3069686,2.37997327 C10.6467176,2.37997327 11.0003103,2.40246938 11.3885124,2.44803843 L11.7905583,2.49533795 L11.8185343,2.89911432 C12.0276327,5.92686025 12.7477967,7.66309863 13.7950196,7.66309863 C14.1722621,7.66309863 14.5053776,7.54340777 14.8128244,7.29681578 L16.1037552,6.26401351 L15.5814416,7.83239629 C15.255248,8.81241921 14.9215557,9.84724036 14.9215557,9.84724036 C14.4595201,11.5462736 12.9286309,15.1297889 12.8637382,15.2814934 C12.2188497,16.6765408 10.8794658,18.1644567 9.45038587,18.1644567 L9.45038587,18.1644567 Z M3.36576443,8.59063062 C3.54486809,9.13832443 3.67724906,9.54700379 3.67724906,9.54700379 C4.13438159,11.224983 5.68776696,14.8607008 5.70276436,14.8973291 C6.29458515,16.1761465 7.40237446,17.1878947 8.21915637,17.1878947 L9.45038587,17.1878947 C10.266591,17.1878947 11.3749571,16.1761465 11.9716809,14.8843505 C11.9817753,14.8607008 13.5351607,11.2244062 13.9856597,9.56863467 C13.9896975,9.55507932 14.1232321,9.14063172 14.303201,8.59034221 C14.1382295,8.62322115 13.9686434,8.63966061 13.7950196,8.63966061 C12.1605905,8.63966061 11.1797024,6.87025489 10.8762933,3.37903137 C10.6784429,3.36403396 10.4903984,3.35682367 10.3069686,3.35682367 L7.36142,3.35682367 C7.17914381,3.35682367 6.99081097,3.36403396 6.79267214,3.37903137 C6.48983987,6.87025489 5.50837488,8.63966061 3.87452266,8.63966061 C3.70003358,8.63966061 3.53044751,8.62322115 3.36576443,8.59063062 L3.36576443,8.59063062 Z" id="Fill-3"></path>
                        </g>
                    </g>
                </g>
            </g>
        </g>
    </g>
</svg>