<?xml version="1.0" encoding="UTF-8" standalone="no"?>
<svg width="48px" height="62px" viewBox="0 0 48 62" version="1.1" xmlns="http://www.w3.org/2000/svg" xmlns:xlink="http://www.w3.org/1999/xlink" xmlns:sketch="http://www.bohemiancoding.com/sketch/ns">
    <!-- Generator: Sketch 3.3.3 (12081) - http://www.bohemiancoding.com/sketch -->
    <title>ico-delete</title>
    <desc>Created with Sketch.</desc>
    <defs></defs>
    <g id="Page-1" stroke="none" stroke-width="1" fill="none" fill-rule="evenodd" sketch:type="MSPage">
        <g id="user-home-Populated" sketch:type="MSArtboardGroup" transform="translate(-476.000000, -411.000000)" fill="#9B9B9B">
            <g id="Properties---HOVER" sketch:type="MSLayerGroup" transform="translate(-3.000000, 235.000000)">
                <g id="Rectangle-283-+-Delete-icon-+-Create-Job-Post" transform="translate(386.000000, 121.000000)" sketch:type="MSShapeGroup">
                    <g id="Delete-icon" transform="translate(62.000000, 55.000000)">
                        <g id="ico-delete" transform="translate(31.000000, 0.000000)">
                            <path d="M39.1410811,61.1419459 L9.12616216,61.1419459 C5.87902703,61.1419459 3.23708108,58.5003243 3.23708108,55.2528649 L3.23708108,14.9795676 L45.0301622,14.9795676 L45.0301622,55.2528649 C45.0301622,58.5003243 42.3882162,61.1419459 39.1410811,61.1419459 L39.1410811,61.1419459 Z M7.41632432,19.1591351 L7.41632432,55.2528649 C7.41632432,56.196 8.18335135,56.9627027 9.12616216,56.9627027 L39.1410811,56.9627027 C40.0838919,56.9627027 40.8509189,56.196 40.8509189,55.2528649 L40.8509189,19.1591351 L7.41632432,19.1591351 L7.41632432,19.1591351 Z" id="Fill-1"></path>
                            <path d="M14.6351351,50.5037838 C14.6351351,51.1307027 14.1223784,51.6434595 13.4954595,51.6434595 L11.5955676,51.6434595 C10.9686486,51.6434595 10.4558919,51.1307027 10.4558919,50.5037838 L10.4558919,23.9082162 C10.4558919,23.2812973 10.9686486,22.7685405 11.5955676,22.7685405 L13.4954595,22.7685405 C14.1223784,22.7685405 14.6351351,23.2812973 14.6351351,23.9082162 L14.6351351,50.5037838" id="Fill-2"></path>
                            <path d="M26.2235676,50.5037838 C26.2235676,51.1307027 25.7104865,51.6434595 25.0835676,51.6434595 L23.1836757,51.6434595 C22.5567568,51.6434595 22.044,51.1307027 22.044,50.5037838 L22.044,23.9082162 C22.044,23.2812973 22.5567568,22.7685405 23.1836757,22.7685405 L25.0835676,22.7685405 C25.7104865,22.7685405 26.2235676,23.2812973 26.2235676,23.9082162 L26.2235676,50.5037838" id="Fill-3"></path>
                            <path d="M37.8113514,50.5037838 C37.8113514,51.1307027 37.2985946,51.6434595 36.6713514,51.6434595 L34.7717838,51.6434595 C34.1445405,51.6434595 33.6317838,51.1307027 33.6317838,50.5037838 L33.6317838,23.9082162 C33.6317838,23.2812973 34.1445405,22.7685405 34.7717838,22.7685405 L36.6713514,22.7685405 C37.2985946,22.7685405 37.8113514,23.2812973 37.8113514,23.9082162 L37.8113514,50.5037838" id="Fill-4"></path>
                            <path d="M47.9747027,19.1591351 L0.292540541,19.1591351 L0.292540541,9.8507027 C0.292540541,7.65081081 2.01405405,5.86118919 4.1292973,5.86118919 L44.1379459,5.86118919 C46.2531892,5.86118919 47.9747027,7.65081081 47.9747027,9.8507027 L47.9747027,19.1591351 L47.9747027,19.1591351 Z M4.47210811,14.9795676 L43.7954595,14.9795676 L43.7954595,10.0407568 L4.47210811,10.0407568 L4.47210811,14.9795676 Z" id="Fill-5"></path>
                            <path d="M33.0145946,6.81113514 C33.0145946,7.43837838 32.5018378,7.95113514 31.8745946,7.95113514 L29.975027,7.95113514 C29.3481081,7.95113514 28.8353514,7.43837838 28.8353514,6.81113514 L28.8353514,5.57643243 C28.8353514,4.94951351 28.3225946,4.43675676 27.6953514,4.43675676 L20.5718919,4.43675676 C19.9446486,4.43675676 19.4318919,4.94951351 19.4318919,5.57643243 L19.4318919,6.81113514 C19.4318919,7.43837838 18.9191351,7.95113514 18.2922162,7.95113514 L16.3923243,7.95113514 C15.7654054,7.95113514 15.2526486,7.43837838 15.2526486,6.81113514 L15.2526486,1.39718919 C15.2526486,0.769945946 15.7654054,0.257189189 16.3923243,0.257189189 L31.8745946,0.257189189 C32.5018378,0.257189189 33.0145946,0.769945946 33.0145946,1.39718919 L33.0145946,6.81113514" id="Fill-6"></path>
                        </g>
                    </g>
                </g>
            </g>
        </g>
    </g>
</svg>