<?xml version="1.0" encoding="UTF-8" standalone="no"?>
<svg width="51px" height="31px" viewBox="0 0 51 31" version="1.1" xmlns="http://www.w3.org/2000/svg" xmlns:xlink="http://www.w3.org/1999/xlink" xmlns:sketch="http://www.bohemiancoding.com/sketch/ns">
    <!-- Generator: Sketch 3.3.3 (12081) - http://www.bohemiancoding.com/sketch -->
    <title>ico-hoodCleaning-active</title>
    <desc>Created with Sketch.</desc>
    <defs></defs>
    <g id="Page-1" stroke="none" stroke-width="1" fill="none" fill-rule="evenodd" sketch:type="MSPage">
        <g id="organization-jobDetailView" sketch:type="MSArtboardGroup" transform="translate(-261.000000, -942.000000)" fill="#70D6DF">
            <g id="Additional-Services" sketch:type="MSLayerGroup" transform="translate(69.000000, 829.000000)">
                <g id="Hood-Cleaning" transform="translate(191.000000, 113.000000)" sketch:type="MSShapeGroup">
                    <g id="ico-hoodCleaning-active" transform="translate(1.000000, 0.000000)">
                        <path d="M30.7084986,26.2028393 L32.2714155,26.2028393 L32.2714155,27.7681579 L30.7084986,27.7681579 L30.7084986,26.2028393 Z" id="Fill-1"></path>
                        <path d="M18.6394404,26.2028393 L23.3334183,26.2028393 L23.3334183,27.7681579 L18.6394404,27.7681579 L18.6394404,26.2028393 Z" id="Fill-2"></path>
                        <path d="M49.5947452,23.7740526 L47.2375845,23.7740526 C47.1490055,23.4943296 46.9714238,23.2459695 46.7078061,23.0836454 L33.7908199,15.1759612 L33.7908199,1.28503047 C33.7908199,0.583180055 33.221626,0.0135623269 32.5193518,0.0135623269 L18.3936233,0.0135623269 C17.691349,0.0135623269 17.1221551,0.583180055 17.1221551,1.28503047 L17.1221551,15.1751136 L4.20304986,23.0836454 C3.93858449,23.2459695 3.75309141,23.4943296 3.6621108,23.7740526 L1.31822992,23.7740526 C0.615814404,23.7740526 0.0467617729,24.3435291 0.0467617729,25.0455208 L0.0467617729,28.9236399 C0.0467617729,29.6256316 0.615814404,30.195108 1.31822992,30.195108 L49.5947452,30.195108 C50.2970194,30.195108 50.8662133,29.6256316 50.8662133,28.9236399 L50.8662133,25.0455208 C50.8662133,24.3435291 50.2970194,23.7740526 49.5947452,23.7740526 L49.5947452,23.7740526 Z M18.3936233,1.28503047 L32.5192105,1.28503047 L32.5192105,14.7049529 L18.3936233,14.7049529 L18.3936233,1.28503047 Z M18.2479695,15.9764211 L32.6628864,15.9764211 L45.3994654,23.7740526 L5.51054294,23.7740526 L18.2479695,15.9764211 L18.2479695,15.9764211 Z M1.31822992,25.0455208 L49.5947452,25.0455208 L49.5947452,28.9236399 L1.31822992,28.9236399 L1.31822992,25.0455208 Z" id="Fill-3"></path>
                        <path d="M28.1522825,26.2028393 L29.7147756,26.2028393 L29.7147756,27.7681579 L28.1522825,27.7681579 L28.1522825,26.2028393 Z" id="Fill-4"></path>
                        <path d="M25.5957839,26.2028393 L27.1591247,26.2028393 L27.1591247,27.7681579 L25.5957839,27.7681579 L25.5957839,26.2028393 Z" id="Fill-5"></path>
                    </g>
                </g>
            </g>
        </g>
    </g>
</svg>