<?xml version="1.0" encoding="UTF-8" standalone="no"?>
<svg width="17px" height="18px" viewBox="0 0 17 18" version="1.1" xmlns="http://www.w3.org/2000/svg" xmlns:xlink="http://www.w3.org/1999/xlink" xmlns:sketch="http://www.bohemiancoding.com/sketch/ns">
    <!-- Generator: Sketch 3.3.3 (12081) - http://www.bohemiancoding.com/sketch -->
    <title>ico-cat</title>
    <desc>Created with Sketch.</desc>
    <defs></defs>
    <g id="Page-1" stroke="none" stroke-width="1" fill="none" fill-rule="evenodd" sketch:type="MSPage">
        <g id="organization-jobDetailView" sketch:type="MSArtboardGroup" transform="translate(-287.000000, -1860.000000)" fill="#4A4A4A">
            <g id="Pets" sketch:type="MSLayerGroup" transform="translate(69.000000, 1857.000000)">
                <g id="CATS-+-DOGS" transform="translate(124.000000, 0.000000)" sketch:type="MSShapeGroup">
                    <g id="CATS" transform="translate(92.000000, 0.000000)">
                        <path d="M9.02633884,20.5853499 L7.99615283,20.4147317 C7.22645627,20.2872554 1.52804971,16.3059321 2.03143143,13.6244821 L2.87937788,9.10757991 C2.88588857,9.07124047 2.90380275,8.94763023 2.93108195,8.75921301 C3.75833146,3.08097961 4.18015412,2.36419208 4.54120016,2.11704579 C4.68306561,2.01951842 4.85240676,1.9812065 5.0181179,2.00865139 C5.26200607,2.04904387 5.99312009,2.16983782 7.73110686,6.16642143 C8.098231,6.19857617 8.69865913,6.25621577 9.09980686,6.3226534 L13.121245,6.98867941 C13.5220909,7.05506706 14.1079009,7.19389088 14.4639897,7.28151385 C17.5524531,4.08428142 18.2834607,4.2056424 18.5273488,4.24603488 C18.6927581,4.27342978 18.838238,4.36388199 18.9363367,4.50115197 C19.1855616,4.84966295 19.3209388,5.6587333 18.0297585,11.260131 C17.9870854,11.4459987 17.9586599,11.5675757 17.9517942,11.6041487 L17.103901,16.1207674 C16.6005192,18.8022174 9.79603539,20.7128262 9.02633884,20.5853499 L9.02633884,20.5853499 L9.02633884,20.5853499 Z M8.20781017,19.4596779 L9.17521309,19.6198981 C9.93046837,19.583911 15.7215992,17.870587 16.0818647,15.9514989 L16.9298111,11.4345967 C16.9369962,11.3963227 16.9676213,11.2613706 17.0155999,11.0538725 C17.8335599,7.50574191 18.0403796,6.01609962 18.0676829,5.39153596 C17.3837759,5.84654985 16.0749346,7.05253177 15.0227081,8.15485095 L14.8084213,8.37953116 L14.4988161,8.29960676 C14.4887132,8.29705655 13.4924973,8.03998171 12.9410324,7.94864872 L8.91959429,7.28262271 C8.36812935,7.19128971 7.33808128,7.11277701 7.32765899,7.11192786 L7.00762217,7.08757168 L6.888072,6.80760176 C6.30064068,5.43401664 5.5101724,3.88034945 5.0332491,3.23278784 C4.83142802,3.82874038 4.48334633,5.29498703 3.95948674,8.89124153 C3.92901491,9.1016391 3.90859925,9.23857437 3.90141417,9.2768484 L3.05346771,13.7937506 C2.69320224,15.7128387 7.51120646,19.1832356 8.20781017,19.4596779 L8.20781017,19.4596779 L8.20781017,19.4596779 Z" id="ico-cat" transform="translate(10.550000, 11.295685) rotate(-10.000000) translate(-10.550000, -11.295685) "></path>
                    </g>
                </g>
            </g>
        </g>
    </g>
</svg>