<?xml version="1.0" encoding="UTF-8" standalone="no"?>
<svg width="57px" height="35px" viewBox="0 0 57 35" version="1.1" xmlns="http://www.w3.org/2000/svg" xmlns:xlink="http://www.w3.org/1999/xlink" xmlns:sketch="http://www.bohemiancoding.com/sketch/ns">
    <!-- Generator: Sketch 3.3.2 (12043) - http://www.bohemiancoding.com/sketch -->
    <title>ico-master-default</title>
    <desc>Created with Sketch.</desc>
    <defs></defs>
    <g id="icons" stroke="none" stroke-width="1" fill="none" fill-rule="evenodd" sketch:type="MSPage">
        <g sketch:type="MSArtboardGroup" transform="translate(-424.000000, -37.000000)" id="ico-master-default">
            <g sketch:type="MSLayerGroup" transform="translate(424.000000, 37.000000)">
                <path d="M17.0577192,0.0534436742 C26.4618302,0.0534436742 34.0853085,7.67692201 34.0853085,17.0809341 C34.0853085,26.4849463 26.4618302,34.1084246 17.0577192,34.1084246 C7.65370711,34.1084246 0.0302287695,26.4849463 0.0302287695,17.0809341 C0.0302287695,7.67692201 7.65370711,0.0534436742 17.0577192,0.0534436742" id="Fill-1" fill="#C7C7C7" sketch:type="MSShapeGroup"></path>
                <path d="M39.9721144,0.0534436742 C49.3761265,0.0534436742 56.9996049,7.67692201 56.9996049,17.0809341 C56.9996049,26.4849463 49.3761265,34.1084246 39.9721144,34.1084246 C30.5681023,34.1084246 22.9446239,26.4849463 22.9446239,17.0809341 C22.9446239,7.67692201 30.5681023,0.0534436742 39.9721144,0.0534436742" id="Fill-2" fill="#C7C7C7" sketch:type="MSShapeGroup"></path>
                <path d="M28.5136326,4.51080416 C24.9730139,7.73184749 22.951539,12.2945147 22.9445251,17.0811317 C22.9522305,21.8679463 24.9745945,26.4305147 28.516201,29.6510641 C32.0568198,26.4301196 34.0782946,21.8676499 34.0854073,17.0811317 C34.0777019,12.2941196 32.055338,7.73145234 28.5136326,4.51080416" id="Fill-3" fill="#C7C7C7" sketch:type="MSShapeGroup"></path>
                <path d="M1.41265165,13.2400035 L1.41265165,20.5798648 L3.09686828,20.5798648 L3.09686828,17.6896586 C3.08649567,17.0138579 3.06575043,16.3485286 3.05527903,15.6831993 C3.21126343,16.1821716 3.36724783,16.6916153 3.51276083,17.1698423 C3.6375286,17.5545182 3.75182496,17.9079775 3.8662201,18.2614367 L4.64594454,20.5798648 L5.99744714,20.5798648 C6.15343154,20.122383 6.30941594,19.6546274 6.46530156,19.1971456 C6.6525026,18.6565841 6.83960485,18.1055511 7.01633449,17.5648908 C7.22428076,16.9203068 7.42175563,16.2757227 7.61932929,15.6311386 C7.59848527,16.2861941 7.57774003,16.9515234 7.57774003,17.6168527 L7.57774003,20.5798648 L9.33476256,20.5798648 L9.33476256,13.2400035 L6.83960485,13.2400035 C6.71483709,13.6246794 6.59006932,14.0197279 6.45492894,14.4147764 C6.28857192,14.9449653 6.10146967,15.475253 5.93511265,16.0158146 C5.73753899,16.650026 5.55043674,17.273766 5.37370711,17.8976049 C5.17613345,17.2633934 4.9890312,16.6292808 4.78108492,15.9846967 C4.48996014,15.0697331 4.18856153,14.1548683 3.87659272,13.2400035 L1.41265165,13.2400035" id="Fill-4" fill="#FFFFFF" sketch:type="MSShapeGroup"></path>
                <path d="M13.846357,15.308896 C13.6176655,15.1530104 13.1810277,14.851513 12.4532652,14.851513 C11.6111075,14.851513 10.8417556,15.2673068 10.3324107,15.9327348 C9.78137782,16.6812426 9.71894454,17.4401231 9.71894454,17.7728371 C9.71894454,18.9788267 10.3843726,19.7273345 10.7066153,20.0184593 C11.3616707,20.6214541 12.006156,20.69426 12.359714,20.69426 C13.1914003,20.69426 13.6384107,20.3303293 13.9087903,20.1328544 L13.9087903,20.5798648 L15.5409463,20.5798648 L15.5409463,14.9658094 L13.846357,14.9658094 L13.846357,15.308896 L13.846357,15.308896 Z M11.7774645,18.6773293 C11.5279289,18.4382652 11.3927886,18.1159237 11.3927886,17.7832097 C11.3927886,17.0866638 11.9645667,16.504513 12.6612114,16.504513 C13.36813,16.504513 13.9295355,17.0762912 13.9399081,17.7728371 C13.9399081,18.4797556 13.3785026,19.0411612 12.6715841,19.0516326 C12.33887,19.0516326 12.006156,18.9060208 11.7774645,18.6773293 L11.7774645,18.6773293 Z" id="Fill-5" fill="#FFFFFF" sketch:type="MSShapeGroup"></path>
                <path d="M20.1616014,16.6188094 C20.1512288,16.5357296 20.1512288,16.317312 20.0680503,16.0782478 C19.9120659,15.6000208 19.4026222,14.8618856 18.1446707,14.8618856 C17.3649463,14.8618856 16.554104,15.2049723 16.1798007,15.9327348 C16.0966222,16.0782478 15.9926984,16.3277834 15.9926984,16.7332045 C15.9926984,16.9411508 16.0134437,17.4297504 16.4293362,17.845643 C16.6580277,18.0639619 16.9491525,18.2303189 17.5937366,18.3965771 C18.040747,18.5109723 18.2902825,18.5421889 18.4461681,18.7292912 C18.518974,18.8333137 18.5397192,18.9476101 18.5397192,18.9995719 C18.5397192,19.1243397 18.4461681,19.4363085 18.0719636,19.4466811 C18.0303744,19.4466811 17.9159792,19.4363085 17.8120555,19.3738752 C17.5728925,19.2491075 17.5625199,18.9788267 17.5416759,18.8956482 L15.836714,18.8956482 C15.8574593,19.0204159 15.8783033,19.3219133 16.0446603,19.6337834 C16.1485841,19.8417296 16.3149411,20.0288319 16.4916707,20.1744437 C16.7619515,20.4031352 17.2401785,20.7046326 18.0719636,20.7046326 C19.0491629,20.7046326 19.6105685,20.2783674 19.8704766,19.9872426 C20.2967418,19.5298596 20.3279584,19.0723778 20.3279584,18.8124697 C20.3279584,18.303026 20.1512288,17.8872322 19.7249636,17.5857348 C19.3506603,17.3049827 18.997201,17.2218042 18.5605633,17.1178804 C18.2278492,17.0243293 18.0095303,16.961896 17.8847626,16.8787175 C17.7704662,16.795539 17.6976603,16.6707712 17.6976603,16.5148856 C17.6976603,16.2861941 17.8640173,16.0886205 18.1030815,16.0886205 C18.1758873,16.0886205 18.2590659,16.1094645 18.3214003,16.1509549 C18.49813,16.2549775 18.5293466,16.4213345 18.5501906,16.6188094 L20.1616014,16.6188094" id="Fill-6" fill="#FFFFFF" sketch:type="MSShapeGroup"></path>
                <path d="M20.8007522,13.2400035 L20.8007522,14.9450641 L20.1769133,14.9450641 L20.1769133,16.2549775 L20.7800069,16.2549775 L20.7800069,20.5798648 L22.4849688,20.5798648 L22.4849688,16.2653501 L23.2127314,16.2653501 L23.2127314,14.9554367 L22.4953414,14.9554367 L22.4953414,13.2400035 L20.8007522,13.2400035" id="Fill-7" fill="#FFFFFF" sketch:type="MSShapeGroup"></path>
                <path d="M24.7868995,17.1178804 C24.8388614,17.0138579 24.8908232,16.9203068 24.9740017,16.8371282 C24.994747,16.8060104 25.0987695,16.6916153 25.2235373,16.6188094 C25.4730728,16.4420797 25.7329809,16.3589012 26.0344783,16.3589012 C26.834948,16.3589012 27.1572894,16.8683449 27.2924298,17.1178804 L24.7868995,17.1178804 L24.7868995,17.1178804 Z M28.8934679,18.3446153 C28.9142132,18.1471404 28.9350572,17.9599393 28.9350572,17.7624645 C28.9350572,16.9203068 28.5295373,16.0886205 27.8954246,15.5584315 C27.167662,14.9345927 26.356721,14.8618856 26.0240069,14.8618856 C25.161104,14.8618856 24.3190451,15.2569341 23.7680121,15.9222634 C23.1650173,16.650026 23.0922114,17.4297504 23.0922114,17.7832097 C23.0922114,18.6461127 23.4977314,19.498643 24.152688,20.0393033 C24.8908232,20.6422981 25.6913917,20.7046326 26.044851,20.7046326 C27.1260728,20.7046326 27.7602842,20.1744437 28.0513102,19.8833189 C28.4775754,19.4674263 28.6230884,19.1035945 28.7271109,18.8644315 L26.9909324,18.8644315 C26.8869099,18.9684541 26.8453206,18.9995719 26.7726135,19.04126 C26.5750399,19.1764003 26.2943865,19.2387348 26.044851,19.2387348 C25.5977418,19.2387348 25.1715754,19.0516326 24.9011958,18.6877019 C24.8076447,18.5629341 24.7140936,18.3654593 24.703721,18.3446153 L28.8934679,18.3446153 L28.8934679,18.3446153 Z" id="Fill-8" fill="#FFFFFF" sketch:type="MSShapeGroup"></path>
                <path d="M29.2984939,14.976182 L29.2984939,20.5798648 L30.9930832,20.5798648 L30.9930832,17.4505945 C31.0035546,17.1698423 31.0346724,17.0555459 31.117851,16.9307782 C31.3777591,16.5357296 32.0431872,16.5148856 32.095149,16.5148856 C32.2302894,16.504513 32.3342132,16.5252582 32.4486083,16.5357296 L32.4486083,14.9554367 C32.2302894,14.9554367 31.6688839,14.9138475 31.1698128,15.4128198 C31.0346724,15.5480589 30.9100035,15.7143172 30.8787868,15.7560052 L30.8787868,14.976182 L29.2984939,14.976182" id="Fill-9" fill="#FFFFFF" sketch:type="MSShapeGroup"></path>
                <path d="M40.0376101,15.9846967 C39.9128423,15.5584315 39.6529341,14.6955286 38.7484419,13.9573934 C37.7815165,13.1671976 36.8043172,13.0841179 36.3260901,13.0841179 C35.3903813,13.0841179 34.7145806,13.4063605 34.4130832,13.5830901 C33.8205598,13.9365494 32.5105477,14.9658094 32.5105477,16.961896 C32.5105477,18.012 32.905695,18.6877019 33.1447591,19.0307886 C33.5190624,19.5714489 34.5067331,20.7150052 36.3676794,20.7150052 C36.7939445,20.7150052 37.1265598,20.6526707 37.2825442,20.6110815 C37.8023605,20.4863137 38.9771334,20.0288319 39.684052,18.7189185 C39.7984471,18.5005997 39.8919983,18.2926534 40.0479827,17.8144263 L38.0103068,17.8144263 C37.8959116,18.0015286 37.8543224,18.0639619 37.7815165,18.157513 C37.5008631,18.490227 37.0954419,18.6773293 36.9810468,18.7189185 C36.856279,18.7605078 36.6483328,18.8228423 36.3468354,18.8228423 C35.2136516,18.8228423 34.6938354,17.9704107 34.5483224,17.6273241 C34.4962617,17.5025563 34.4130832,17.2633934 34.4027106,16.9099341 C34.4027106,16.1405823 34.8393484,15.4440364 35.5567383,15.142539 C35.6918787,15.0802045 35.9621594,14.976182 36.3468354,14.976182 C36.9394575,14.976182 37.4696464,15.2360901 37.8231057,15.7039445 C37.885539,15.7974957 37.9478735,15.8806742 37.9998354,15.9846967 L40.0376101,15.9846967" id="Fill-10" fill="#FFFFFF" sketch:type="MSShapeGroup"></path>
                <path d="M44.2479047,15.308896 C44.0191144,15.1530104 43.5824766,14.851513 42.854714,14.851513 C42.0126551,14.851513 41.2433033,15.2673068 40.7338596,15.9327348 C40.1829255,16.6812426 40.1204922,17.4401231 40.1204922,17.7728371 C40.1204922,18.9788267 40.7859203,19.7273345 41.1081629,20.0184593 C41.7631196,20.6214541 42.4077036,20.69426 42.7611629,20.69426 C43.592948,20.69426 44.0399584,20.3303293 44.3102392,20.1328544 L44.3102392,20.5798648 L45.9424939,20.5798648 L45.9424939,14.9658094 L44.2479047,14.9658094 L44.2479047,15.308896 L44.2479047,15.308896 Z M42.1790121,18.6773293 C41.9294766,18.4382652 41.7943362,18.1159237 41.7943362,17.7832097 C41.7943362,17.0866638 42.3661144,16.504513 43.0626603,16.504513 C43.7696776,16.504513 44.3310832,17.0762912 44.3414558,17.7728371 C44.3414558,18.4797556 43.7800503,19.0411612 43.0731317,19.0516326 C42.7404177,19.0516326 42.4077036,18.9060208 42.1790121,18.6773293 L42.1790121,18.6773293 Z" id="Fill-11" fill="#FFFFFF" sketch:type="MSShapeGroup"></path>
                <path d="M46.5501317,14.976182 L46.5501317,20.5798648 L48.244721,20.5798648 L48.244721,17.4505945 C48.2550936,17.1698423 48.2863102,17.0555459 48.3694887,16.9307782 C48.6293969,16.5357296 49.2947262,16.5148856 49.346688,16.5148856 C49.4819272,16.504513 49.585851,16.5252582 49.7002461,16.5357296 L49.7002461,14.9554367 C49.4819272,14.9554367 48.9205217,14.9138475 48.4214506,15.4128198 C48.2863102,15.5480589 48.1615425,15.7143172 48.1303258,15.7560052 L48.1303258,14.976182 L46.5501317,14.976182" id="Fill-12" fill="#FFFFFF" sketch:type="MSShapeGroup"></path>
                <path d="M53.816792,15.3192686 C53.5776291,15.163383 53.1514627,14.8618856 52.4237002,14.8618856 C51.5815425,14.8618856 50.801818,15.2776794 50.3028458,15.9431075 C49.7414402,16.6812426 49.6893795,17.4505945 49.6893795,17.7832097 C49.6893795,18.9891993 50.3548076,19.7378059 50.6666776,20.0288319 C51.3216343,20.6318267 51.9662184,20.7046326 52.3300503,20.7046326 C53.1514627,20.7046326 53.6088458,20.3408007 53.8687539,20.143227 L53.8791265,20.5798648 L55.5010087,20.5798648 L55.5010087,13.2400035 L53.816792,13.2400035 L53.816792,15.3192686 L53.816792,15.3192686 Z M51.7375269,18.6877019 C51.498364,18.4381664 51.3632236,18.1159237 51.3632236,17.7832097 C51.3632236,17.0866638 51.9246291,16.5148856 52.6315477,16.5148856 C53.3281924,16.504513 53.8999705,17.0762912 53.8999705,17.7832097 C53.8999705,18.4797556 53.338565,19.0516326 52.6315477,19.0516326 C52.2989324,19.0516326 51.9662184,18.9060208 51.7375269,18.6877019 L51.7375269,18.6877019 Z" id="Fill-13" fill="#FFFFFF" sketch:type="MSShapeGroup"></path>
            </g>
        </g>
    </g>
</svg>