<?xml version="1.0" encoding="UTF-8" standalone="no"?>
<svg width="22px" height="42px" viewBox="0 0 22 42" version="1.1" xmlns="http://www.w3.org/2000/svg" xmlns:xlink="http://www.w3.org/1999/xlink" xmlns:sketch="http://www.bohemiancoding.com/sketch/ns">
    <!-- Generator: Sketch 3.3.3 (12081) - http://www.bohemiancoding.com/sketch -->
    <title>ico-fridge-active</title>
    <desc>Created with Sketch.</desc>
    <defs></defs>
    <g id="Page-1" stroke="none" stroke-width="1" fill="none" fill-rule="evenodd" sketch:type="MSPage">
        <g id="organization-jobDetailView" sketch:type="MSArtboardGroup" transform="translate(-276.000000, -829.000000)" fill="#70D6DF">
            <g id="Additional-Services" sketch:type="MSLayerGroup" transform="translate(69.000000, 829.000000)">
                <g id="Refrigerator" transform="translate(183.000000, 0.000000)" sketch:type="MSShapeGroup">
                    <g id="ico-fridge-active" transform="translate(24.000000, 0.000000)">
                        <path d="M4.58742308,13.4565256 C4.18423077,13.4565256 3.85535897,13.7845513 3.85535897,14.1885897 L3.85535897,22.0179103 C3.85535897,22.423641 4.18423077,22.7509615 4.58742308,22.7509615 C4.99160256,22.7509615 5.32047436,22.423641 5.32047436,22.0179103 L5.32047436,14.1885897 C5.32047436,13.7845513 4.99160256,13.4565256 4.58742308,13.4565256" id="Fill-1"></path>
                        <path d="M21.9204615,3.7504359 C21.9204615,1.75576923 20.2983846,0.133692308 18.3044231,0.133692308 L3.64466667,0.133692308 C1.65070513,0.133692308 0.0277820513,1.75576923 0.0277820513,3.7504359 L0.0277820513,25.1323205 C0.0277820513,25.3802436 0.10224359,25.6091282 0.224512821,25.8050128 C0.10224359,26.0000513 0.0277820513,26.2297821 0.0277820513,26.476859 L0.0277820513,37.8354872 C0.0277820513,39.8277564 1.65070513,41.4489872 3.64466667,41.4489872 L18.3044231,41.4489872 C20.2983846,41.4489872 21.9204615,39.8277564 21.9204615,37.8354872 L21.9204615,26.476859 C21.9204615,26.2297821 21.846,26.0000513 21.7237308,25.8050128 C21.846,25.6091282 21.9204615,25.3802436 21.9204615,25.1323205 L21.9204615,3.7504359 L21.9204615,3.7504359 Z M1.29701282,3.7504359 C1.29701282,2.45314103 2.34807692,1.40292308 3.64466667,1.40292308 L18.3044231,1.40292308 C19.6000256,1.40292308 20.6512308,2.45314103 20.6512308,3.7504359 L20.6512308,25.1323205 L1.29701282,25.1323205 L1.29701282,3.7504359 L1.29701282,3.7504359 Z M20.6512308,37.8354872 C20.6512308,39.1293974 19.6000256,40.1797564 18.3044231,40.1797564 L3.64466667,40.1797564 C2.34807692,40.1797564 1.29701282,39.1293974 1.29701282,37.8354872 L1.29701282,26.476859 L20.6512308,26.476859 L20.6512308,37.8354872 L20.6512308,37.8354872 Z" id="Fill-2"></path>
                    </g>
                </g>
            </g>
        </g>
    </g>
</svg>