<?xml version="1.0" encoding="UTF-8" standalone="no"?>
<svg width="19px" height="23px" viewBox="0 0 19 23" version="1.1" xmlns="http://www.w3.org/2000/svg" xmlns:xlink="http://www.w3.org/1999/xlink" xmlns:sketch="http://www.bohemiancoding.com/sketch/ns">
    <!-- Generator: Sketch 3.3.2 (12043) - http://www.bohemiancoding.com/sketch -->
    <title>ico-edit-default</title>
    <desc>Created with Sketch.</desc>
    <defs></defs>
    <g id="icons" stroke="none" stroke-width="1" fill="none" fill-rule="evenodd" sketch:type="MSPage">
        <g sketch:type="MSArtboardGroup" transform="translate(-843.000000, -43.000000)" id="ico-edit-default" fill="#C7C7C7">
            <g sketch:type="MSLayerGroup" transform="translate(843.000000, 43.000000)">
                <path d="M11.0970411,2.53819178 L6.52853881,5.17546119 L5.56170776,3.50051142 C5.10006849,2.70190411 5.37405023,1.68058904 6.17317808,1.21903653 L7.84821461,0.252118721 C8.64734247,-0.208913242 9.66813699,0.0645479452 10.13021,0.863675799 L11.0970411,2.53819178" id="Fill-1" sketch:type="MSShapeGroup"></path>
                <path d="M17.2419361,13.1814886 L12.6734338,15.8197991 L7.19857078,6.33602283 L11.7670731,3.69875342 L17.2419361,13.1814886" id="Fill-2" sketch:type="MSShapeGroup"></path>
                <path d="M18.9505479,21.4171644 L13.1406256,16.6280365 L17.7091279,13.9907671 L18.9505479,21.4171644" id="Fill-3" sketch:type="MSShapeGroup"></path>
                <path d="M1.12230137,22.0841598 L13.685032,22.0841598 C14.2976301,22.0841598 14.795274,21.5869498 14.795274,20.9739178 C14.795274,20.3613196 14.2976301,19.8641963 13.685032,19.8641963 L1.12230137,19.8641963 C0.5086621,19.8641963 0.0120593607,20.3613196 0.0120593607,20.9739178 C0.0120593607,21.5869498 0.5086621,22.0841598 1.12230137,22.0841598" id="Fill-4" sketch:type="MSShapeGroup"></path>
            </g>
        </g>
    </g>
</svg>