<?xml version="1.0" encoding="UTF-8" standalone="no"?>
<svg width="33px" height="34px" viewBox="0 0 33 34" version="1.1" xmlns="http://www.w3.org/2000/svg" xmlns:xlink="http://www.w3.org/1999/xlink" xmlns:sketch="http://www.bohemiancoding.com/sketch/ns">
    <!-- Generator: Sketch 3.3.3 (12081) - http://www.bohemiancoding.com/sketch -->
    <title>ico-cabinets</title>
    <desc>Created with Sketch.</desc>
    <defs></defs>
    <g id="Page-1" stroke="none" stroke-width="1" fill="none" fill-rule="evenodd" sketch:type="MSPage">
        <g id="organization-jobDetailView" sketch:type="MSArtboardGroup" transform="translate(-534.000000, -939.000000)" fill="#4A4A4A">
            <g id="Additional-Services" sketch:type="MSLayerGroup" transform="translate(69.000000, 829.000000)">
                <g id="Inside-Cabinets" transform="translate(456.000000, 110.000000)" sketch:type="MSShapeGroup">
                    <g id="ico-cabinets" transform="translate(9.000000, 0.000000)">
                        <path d="M33,2.43666337 C33,1.0909604 31.9090396,0 30.5633366,0 L2.43666337,0 C1.09085149,0 0,1.0909604 0,2.43666337 L0,31.216802 C0,32.562505 1.09085149,33.6534653 2.43666337,33.6534653 L30.5633366,33.6534653 C31.9090396,33.6534653 33,32.562505 33,31.216802 L33,2.43666337 L33,2.43666337 Z M1.74257426,31.160495 L1.74257426,2.48349505 C1.74257426,2.06734653 2.11635644,1.74257426 2.53261386,1.74257426 L16.1188119,1.74257426 L16.1188119,31.9108911 L2.53261386,31.9108911 C2.11635644,31.9108911 1.74257426,31.5767525 1.74257426,31.160495 L1.74257426,31.160495 Z M31.3663366,31.160495 C31.3663366,31.5767525 31.0220693,31.9108911 30.6058119,31.9108911 L16.990099,31.9108911 L16.990099,1.74257426 L30.6058119,1.74257426 C31.0220693,1.74257426 31.3663366,2.06734653 31.3663366,2.48349505 L31.3663366,31.160495 L31.3663366,31.160495 Z" id="Fill-1"></path>
                        <path d="M13.6683168,14.3639307 C13.3348317,14.3639307 13.0693069,14.6342475 13.0693069,14.9677327 L13.0693069,18.7625149 C13.0693069,19.096 13.3348317,19.3663168 13.6683168,19.3663168 C14.0016931,19.3663168 14.2673267,19.096 14.2673267,18.7625149 L14.2673267,14.9677327 C14.2673267,14.6342475 14.0016931,14.3639307 13.6683168,14.3639307" id="Fill-2"></path>
                        <path d="M19.549505,14.3639307 C19.2160198,14.3639307 18.950495,14.6342475 18.950495,14.9677327 L18.950495,18.7625149 C18.950495,19.096 19.2160198,19.3663168 19.549505,19.3663168 C19.8829901,19.3663168 20.1485149,19.096 20.1485149,18.7625149 L20.1485149,14.9677327 C20.1485149,14.6342475 19.8829901,14.3639307 19.549505,14.3639307" id="Fill-3"></path>
                    </g>
                </g>
            </g>
        </g>
    </g>
</svg>