<?xml version="1.0" encoding="UTF-8" standalone="no"?>
<svg width="40px" height="28px" viewBox="0 0 40 28" version="1.1" xmlns="http://www.w3.org/2000/svg" xmlns:xlink="http://www.w3.org/1999/xlink" xmlns:sketch="http://www.bohemiancoding.com/sketch/ns">
    <!-- Generator: Sketch 3.3.3 (12081) - http://www.bohemiancoding.com/sketch -->
    <title>ico-walls-active</title>
    <desc>Created with Sketch.</desc>
    <defs></defs>
    <g id="Page-1" stroke="none" stroke-width="1" fill="none" fill-rule="evenodd" sketch:type="MSPage">
        <g id="organization-jobDetailView" sketch:type="MSArtboardGroup" transform="translate(-401.000000, -944.000000)" fill="#70D6DF">
            <g id="Additional-Services" sketch:type="MSLayerGroup" transform="translate(69.000000, 829.000000)">
                <g id="Interior-Walls" transform="translate(332.000000, 115.000000)" sketch:type="MSShapeGroup">
                    <path d="M39.1296381,11.7460158 C39.4778751,11.7460158 39.7599983,11.4638925 39.7599983,11.1162255 L39.7599983,5.87329285 C39.7599983,5.52562583 39.4778751,5.24293265 39.1296381,5.24293265 L33.343547,5.24293265 L33.343547,0.629790257 C33.343547,0.282123237 33.0614238,0 32.7126168,0 L7.04624159,0 C6.69857457,0 6.41645133,0.282123237 6.41645133,0.629790257 L6.41645133,5.24293265 L0.629790257,5.24293265 C0.282123237,5.24293265 0,5.52562583 0,5.87329285 L0,11.1162255 C0,11.4638925 0.282123237,11.7460158 0.629790257,11.7460158 L6.41702127,11.7460158 L6.41702127,15.728228 L0.629790257,15.728228 C0.282123237,15.728228 0,16.0103512 0,16.3591582 L0,21.6009509 C0,21.9491879 0.282123237,22.2313111 0.629790257,22.2313111 L6.41702127,22.2313111 L6.41702127,26.8438836 C6.41702127,27.1926905 6.69914451,27.4748137 7.04681153,27.4748137 L32.7126168,27.4748137 C33.0608538,27.4748137 33.342977,27.1926905 33.342977,26.8438836 L33.342977,22.2313111 L39.1296381,22.2313111 C39.4778751,22.2313111 39.7599983,21.9491879 39.7599983,21.6009509 L39.7599983,16.3591582 C39.7599983,16.0103512 39.4778751,15.728228 39.1296381,15.728228 L33.342977,15.728228 L33.342977,11.7460158 L39.1296381,11.7460158 L39.1296381,11.7460158 Z M26.9265257,6.50365306 L38.4998479,6.50365306 L38.4998479,10.4858653 L26.9265257,10.4858653 L26.9265257,6.50365306 Z M14.0924832,6.50365306 L25.6663753,6.50365306 L25.6663753,10.4858653 L14.0924832,10.4858653 L14.0924832,6.50365306 Z M14.0924832,16.9889484 L25.6663753,16.9889484 L25.6663753,20.9705907 L14.0924832,20.9705907 L14.0924832,16.9889484 Z M20.5095044,1.26015046 L32.0833965,1.26015046 L32.0833965,5.2423627 L20.5095044,5.2423627 L20.5095044,1.26015046 Z M7.67660179,1.26015046 L19.2499239,1.26015046 L19.2499239,5.2423627 L7.67660179,5.2423627 L7.67660179,1.26015046 Z M1.26015046,6.50365306 L12.8334726,6.50365306 L12.8334726,10.4858653 L1.26015046,10.4858653 L1.26015046,6.50365306 Z M7.67717173,11.7460158 L19.2499239,11.7460158 L19.2499239,15.728228 L7.67717173,15.728228 L7.67717173,11.7460158 Z M1.26015046,16.9889484 L12.8334726,16.9889484 L12.8334726,20.9705907 L1.26015046,20.9705907 L1.26015046,16.9889484 Z M7.67717173,22.2313111 L19.2499239,22.2313111 L19.2499239,26.2135234 L7.67717173,26.2135234 L7.67717173,22.2313111 Z M20.5117842,22.2313111 L32.0828266,22.2313111 L32.0828266,26.2135234 L20.5117842,26.2135234 L20.5117842,22.2313111 Z M26.9265257,16.9889484 L38.4998479,16.9889484 L38.4998479,20.9705907 L26.9265257,20.9705907 L26.9265257,16.9889484 Z M20.5117842,11.7460158 L32.0828266,11.7460158 L32.0828266,15.728228 L20.5117842,15.728228 L20.5117842,11.7460158 Z" id="ico-walls-active"></path>
                </g>
            </g>
        </g>
    </g>
</svg>