<?xml version="1.0" encoding="UTF-8" standalone="no"?>
<svg width="61px" height="62px" viewBox="0 0 61 62" version="1.1" xmlns="http://www.w3.org/2000/svg" xmlns:xlink="http://www.w3.org/1999/xlink" xmlns:sketch="http://www.bohemiancoding.com/sketch/ns">
    <!-- Generator: Sketch 3.3.3 (12081) - http://www.bohemiancoding.com/sketch -->
    <title>ico-createJobPost</title>
    <desc>Created with Sketch.</desc>
    <defs></defs>
    <g id="Page-1" stroke="none" stroke-width="1" fill="none" fill-rule="evenodd" sketch:type="MSPage">
        <g id="user-home-Populated" sketch:type="MSArtboardGroup" transform="translate(-700.000000, -410.000000)" fill="#9B9B9B">
            <g id="Properties---HOVER" sketch:type="MSLayerGroup" transform="translate(-3.000000, 235.000000)">
                <g id="Rectangle-283-+-Delete-icon-+-Create-Job-Post" transform="translate(386.000000, 121.000000)" sketch:type="MSShapeGroup">
                    <g id="Create-Job-Post" transform="translate(294.000000, 54.000000)">
                        <g id="ico-createJobPost" transform="translate(23.000000, 0.000000)">
                            <path d="M48.0820772,52.2869526 C48.0820772,54.0094252 46.6806348,55.4108676 44.9581621,55.4108676 L8.91326871,55.4108676 C7.19079605,55.4108676 5.78939757,54.0094252 5.78939757,52.2869526 L5.78939757,16.2421031 C5.78939757,14.5195865 7.19079605,13.118188 8.91326871,13.118188 L35.3800278,13.118188 L41.1471914,7.3510244 L8.91326871,7.3510244 C4.01059303,7.3510244 0.0221900176,11.3393835 0.0221900176,16.2421031 L0.0221900176,52.2869526 C0.0221900176,57.1896282 4.01059303,61.1780752 8.91326871,61.1780752 L44.9581621,61.1780752 C49.8608378,61.1780752 53.8492408,57.1896282 53.8492408,52.2869526 L53.8492408,20.0591816 L48.0820772,25.8263891 L48.0820772,52.2869526" id="Fill-1"></path>
                            <path d="M23.1361371,32.7403804 C21.558782,32.7403804 20.2799243,34.0192382 20.2799243,35.5966297 C20.2799243,37.1740212 21.558782,38.4526603 23.1361371,38.4526603 C24.7135651,38.4526603 25.9922406,37.1740212 25.9922406,35.5966297 C25.9922406,34.0192382 24.7135651,32.7403804 23.1361371,32.7403804" id="Fill-2"></path>
                            <path d="M14.306113,33.7278861 C13.3014368,33.7278861 12.4868758,34.5422283 12.4868758,35.5470867 C12.4868758,36.5519816 13.3014368,37.3663238 14.306113,37.3663238 C15.3110079,37.3663238 16.125423,36.5519816 16.125423,35.5470867 C16.125423,34.5422283 15.3110079,33.7278861 14.306113,33.7278861" id="Fill-3"></path>
                            <path d="M18.7258643,29.3838528 C17.9302966,29.3838528 17.2851807,30.0287135 17.2851807,30.8244634 C17.2851807,31.6200675 17.9302966,32.2651105 18.7258643,32.2651105 C19.5215777,32.2651105 20.1666936,31.6200675 20.1666936,30.8244634 C20.1666936,30.0287135 19.5215777,29.3838528 18.7258643,29.3838528" id="Fill-4"></path>
                            <path d="M37.6458864,15.4587762 C37.385485,15.7192141 37.1712727,16.0104568 37.0001508,16.3237551 C35.6371538,16.6412822 34.2683969,16.933655 32.9015356,17.2348136 C29.5144583,17.9803644 26.1270529,18.7260609 22.7123788,19.4775539 C22.3995544,20.7158367 22.3722128,21.9303141 22.5944454,23.1474527 C23.1923879,26.4206067 24.8498357,29.1550583 26.9983385,31.6156199 C28.1893021,32.9795647 29.5170102,34.2094628 31.0039922,35.2600364 C32.9424751,36.6292672 35.0203638,37.688736 37.3576695,38.182744 C38.6879659,38.4638521 40.0177155,38.4699766 41.3436737,38.1267484 C41.3812228,37.967037 41.4170221,37.8207412 41.449431,37.6735705 C42.4662468,33.0623186 43.4857968,28.4517959 44.4919312,23.8382109 C44.8108072,23.6658494 45.1069714,23.4487571 45.3712371,23.184455 C47.1353535,21.4204844 46.8355073,18.2612173 44.7021335,16.1278799 C42.5689783,13.9946883 39.409857,13.6949879 37.6458864,15.4587762 L37.6458864,15.4587762 Z M39.5913688,35.7478834 C39.5237804,36.059286 39.4159086,36.1630747 39.0908353,36.1494039 C37.850037,36.0978924 36.6905345,35.7410663 35.5475098,35.2911694 C35.2566316,35.1764805 35.2740209,34.9746995 35.2879469,34.744228 C35.3508326,33.723001 35.6200562,32.7570041 36.0349558,31.8242181 C36.0902223,31.7002695 36.0259513,31.523096 36.0171656,31.3704934 C35.8895714,31.4521536 35.7185953,31.505014 35.6413097,31.6200675 C35.0592982,32.4921187 34.3950796,33.2874311 33.5245596,33.8821656 C33.3953249,33.9704607 33.1029521,33.9795746 32.9806076,33.892519 C32.1959037,33.3353701 31.4402548,32.737063 30.6688207,32.1609572 C30.3688286,31.9369749 30.336201,31.66797 30.5236185,31.376946 C30.9450437,30.7214403 31.3867381,30.0794231 31.8094757,29.4247194 C31.88009,29.3150978 31.8949273,29.1693853 31.9274821,29.066909 C31.017262,29.5401009 30.2121066,29.9646977 29.4007173,30.3768632 C29.1228902,30.5177271 28.8887367,30.446165 28.6923876,30.1895915 C28.3540079,29.7469492 27.9773136,29.3319402 27.6619738,28.8739137 C27.5827197,28.7587509 27.6226748,28.4968913 27.6986845,28.3495748 C28.2956792,27.1987122 29.1052093,26.2114252 30.1055472,25.3896826 C30.7665942,24.8465691 31.4540349,24.335828 32.1641509,23.7840016 C32.0812148,23.6487518 31.9912791,23.5020186 31.9034215,23.3592954 C31.1481007,23.69855 30.4333548,24.0452415 29.6991417,24.3430097 C28.5022723,24.8283413 27.2592139,25.1162301 25.9608889,25.1584091 C25.5982664,25.1702571 25.3872621,25.0553495 25.3121274,24.6983047 C25.1088153,23.728407 24.9025503,22.7590562 24.6959936,21.7901428 C24.6192913,21.4304003 24.7819191,21.3001813 25.1271888,21.2257393 C28.430054,20.5140192 31.729456,19.7858942 35.0294776,19.0610866 C35.5234127,18.9524494 36.0173479,18.8430465 36.5106632,18.7315292 C36.6046089,20.044327 37.2156755,21.4160004 38.3149171,22.5152785 C39.4186428,23.6188219 40.7960397,24.2302529 42.1135037,24.320626 C41.2625238,28.127561 40.4215691,31.9365374 39.5913688,35.7478834 L39.5913688,35.7478834 Z" id="Fill-5"></path>
                            <path d="M59.1324827,0.690338979 C58.2522655,0.257065769 57.3183129,0.449076707 56.4267216,1.27070999 C52.7684156,4.64240311 49.113901,8.01817924 45.4587302,11.393445 C44.8861971,11.9222315 44.3195333,12.4570332 43.7105448,13.0259572 C45.4683544,14.0303053 46.7907765,15.3817823 47.8067903,17.117427 C48.5363735,16.3298067 49.2076645,15.606749 49.8770597,14.8821237 C53.1642491,11.3252368 56.4545371,7.77133928 59.7349093,4.20836433 C60.7747286,3.07926565 60.466607,1.34675609 59.1324827,0.690338979" id="Fill-6"></path>
                        </g>
                    </g>
                </g>
            </g>
        </g>
    </g>
</svg>