<?xml version="1.0" encoding="UTF-8" standalone="no"?>
<svg width="58px" height="35px" viewBox="0 0 58 35" version="1.1" xmlns="http://www.w3.org/2000/svg" xmlns:xlink="http://www.w3.org/1999/xlink" xmlns:sketch="http://www.bohemiancoding.com/sketch/ns">
    <!-- Generator: Sketch 3.3.2 (12043) - http://www.bohemiancoding.com/sketch -->
    <title>ico-visa-default</title>
    <desc>Created with Sketch.</desc>
    <defs></defs>
    <g id="icons" stroke="none" stroke-width="1" fill="none" fill-rule="evenodd" sketch:type="MSPage">
        <g sketch:type="MSArtboardGroup" transform="translate(-220.000000, -36.000000)" id="ico-visa-default" fill="#C7C7C7">
            <g sketch:type="MSLayerGroup" transform="translate(220.000000, 36.000000)">
                <path d="M0.713492063,8.65212698 L57.450381,8.65212698 L57.450381,0.565269841 L0.713492063,0.565269841 L0.713492063,8.65212698 Z" id="Fill-1" sketch:type="MSShapeGroup"></path>
                <path d="M0.713492063,34.2052698 L57.450381,34.2052698 L57.450381,26.1184127 L0.713492063,26.1184127 L0.713492063,34.2052698 Z" id="Fill-2" sketch:type="MSShapeGroup"></path>
                <path d="M20.136127,23.8030159 L24.0147619,11.0144762 L27.4745079,11.0144762 L23.5967937,23.8030159 L20.136127,23.8030159" id="Fill-3" sketch:type="MSShapeGroup"></path>
                <path d="M18.587619,11.0172381 L15.4749524,16.4370159 C14.6850476,17.8584762 14.2210476,18.5756508 13.998254,19.4723492 L13.950381,19.4723492 C14.0065397,18.3353651 13.8463492,16.9406032 13.8334603,16.1488571 L13.4882222,11.0172381 L7.66336508,11.0172381 L7.60444444,11.3615556 C9.10047619,11.3615556 9.98796825,12.1146349 10.2328571,13.6511746 L11.3661587,23.8030159 L14.9520317,23.8030159 L22.2020317,11.0172381 L18.587619,11.0172381" id="Fill-4" sketch:type="MSShapeGroup"></path>
                <path d="M45.4977778,23.8030159 L45.4029524,21.9000635 L41.0833333,21.8973016 L40.1976825,23.8030159 L36.4424127,23.8030159 L43.2532698,11.0393333 L47.8638095,11.0393333 L49.0182857,23.8030159 L45.4977778,23.8030159 L45.4977778,23.8030159 Z M45.1009841,16.2584127 C45.0632381,15.3138413 45.0310159,14.0304762 45.0954603,13.2534603 L45.0439048,13.2534603 C44.834,13.889619 43.9299365,15.796254 43.5294603,16.7334603 L42.244254,19.5367937 L45.277746,19.5367937 L45.1009841,16.2584127 L45.1009841,16.2584127 Z" id="Fill-5" sketch:type="MSShapeGroup"></path>
                <path d="M31.1091746,24.1648254 C28.6648889,24.1648254 27.0436508,23.3914921 25.8864127,22.7000952 L27.5343492,20.1812381 C28.5728254,20.764 29.3885079,21.4342222 31.2675238,21.4342222 C31.8686984,21.4342222 32.452381,21.2777143 32.7819683,20.7041587 C33.2634603,19.8728254 32.6714921,19.4253968 31.3190794,18.6612698 L30.651619,18.2258095 C28.6483175,16.8568254 27.7801587,15.5559683 28.7247302,13.2856825 C29.3286667,11.8347619 30.9195238,10.7336825 33.5470159,10.7336825 C35.3579048,10.7336825 37.0555556,11.5180635 38.0461587,12.2831111 L36.1505714,14.5055238 C35.1848254,13.7239048 34.3847937,13.329873 33.4678413,13.329873 C32.7386984,13.329873 32.1817143,13.6115873 31.9911429,13.9908889 C31.6320952,14.7062222 32.1089841,15.1913968 33.1612698,15.8459683 L33.9557778,16.3495556 C36.3880952,17.884254 36.9680952,19.4935238 36.3577143,20.9969206 C35.3091111,23.5866667 33.2551746,24.1648254 31.1091746,24.1648254" id="Fill-6" sketch:type="MSShapeGroup"></path>
            </g>
        </g>
    </g>
</svg>