<?xml version="1.0" encoding="UTF-8" standalone="no"?>
<svg width="26px" height="38px" viewBox="0 0 26 38" version="1.1" xmlns="http://www.w3.org/2000/svg" xmlns:xlink="http://www.w3.org/1999/xlink" xmlns:sketch="http://www.bohemiancoding.com/sketch/ns">
    <!-- Generator: Sketch 3.3.3 (12081) - http://www.bohemiancoding.com/sketch -->
    <title>ico-ovenCleaning</title>
    <desc>Created with Sketch.</desc>
    <defs></defs>
    <g id="Page-1" stroke="none" stroke-width="1" fill="none" fill-rule="evenodd" sketch:type="MSPage">
        <g id="organization-jobDetailView" sketch:type="MSArtboardGroup" transform="translate(-408.000000, -833.000000)" fill="#4A4A4A">
            <g id="Additional-Services" sketch:type="MSLayerGroup" transform="translate(69.000000, 829.000000)">
                <g id="Oven-cleaning" transform="translate(316.000000, 4.000000)" sketch:type="MSShapeGroup">
                    <g id="ico-ovenCleaning" transform="translate(23.000000, 0.000000)">
                        <path d="M25.8939707,4.07020488 C25.8939707,2.39073171 24.5273854,1.02478049 22.8485463,1.02478049 L20.6162244,1.02478049 C20.7581463,0.938536585 20.8577073,0.789892683 20.8577073,0.612331707 C20.8577073,0.341804878 20.6377854,0.121121951 20.3672585,0.121121951 L16.4278146,0.121121951 C16.1566537,0.121121951 15.9366049,0.341804878 15.9366049,0.612331707 C15.9366049,0.789892683 16.0361659,0.938536585 16.1788488,1.02478049 L9.77308293,1.02478049 C9.91500488,0.938536585 10.0145659,0.789892683 10.0145659,0.612331707 C10.0145659,0.341804878 9.79527805,0.121121951 9.52411707,0.121121951 L5.58467317,0.121121951 C5.31414634,0.121121951 5.09422439,0.341804878 5.09422439,0.612331707 C5.09422439,0.789892683 5.19378537,0.938536585 5.33494634,1.02478049 L3.10414634,1.02478049 C1.42530732,1.02478049 0.0594829268,2.39073171 0.0594829268,4.07020488 L0.0594829268,7.93596098 C0.0594829268,8.15524878 0.124165854,8.35880976 0.231843902,8.53269268 C0.124165854,8.70657561 0.0594829268,8.91026341 0.0594829268,9.12942439 L0.0594829268,34.4430244 C0.0594829268,36.1211024 1.42530732,37.4869268 3.10414634,37.4869268 L22.8485463,37.4869268 C24.5273854,37.4869268 25.8939707,36.1211024 25.8939707,34.4430244 L25.8939707,9.12942439 C25.8939707,8.91026341 25.8292878,8.70657561 25.7216098,8.53269268 C25.8292878,8.35880976 25.8939707,8.15524878 25.8939707,7.93596098 L25.8939707,4.07020488 L25.8939707,4.07020488 Z M24.7525073,34.4430244 C24.7525073,35.4931707 23.9000878,36.3454634 22.8485463,36.3454634 L3.10414634,36.3454634 C2.05323902,36.3454634 1.20094634,35.4931707 1.20094634,34.4430244 L1.20094634,30.5772683 L24.7525073,30.5772683 L24.7525073,34.4430244 L24.7525073,34.4430244 Z M1.20094634,9.12942439 L24.7525073,9.12942439 L24.7525073,29.383678 L1.20094634,29.383678 L1.20094634,9.12942439 Z M24.7525073,7.93596098 L1.20094634,7.93596098 L1.20094634,4.07020488 C1.20094634,3.01790244 2.05323902,2.1662439 3.10414634,2.1662439 L22.8485463,2.1662439 C23.9000878,2.1662439 24.7525073,3.01790244 24.7525073,4.07020488 L24.7525073,7.93596098 L24.7525073,7.93596098 Z" id="Fill-1"></path>
                        <path d="M20.4385366,3.96087805 C19.7154829,3.96087805 19.1276293,4.54797073 19.1276293,5.27115122 C19.1276293,5.99496585 19.7154829,6.58345366 20.4385366,6.58345366 C21.1623512,6.58345366 21.7509659,5.99496585 21.7509659,5.27115122 C21.7509659,4.54797073 21.1623512,3.96087805 20.4385366,3.96087805" id="Fill-2"></path>
                        <path d="M16.3557756,3.96087805 C15.631961,3.96087805 15.0456293,4.54797073 15.0456293,5.27115122 C15.0456293,5.99496585 15.631961,6.58345366 16.3557756,6.58345366 C17.0811122,6.58345366 17.6666829,5.99496585 17.6666829,5.27115122 C17.6666829,4.54797073 17.0811122,3.96087805 16.3557756,3.96087805" id="Fill-3"></path>
                        <path d="M9.59691707,3.96087805 C8.87234146,3.96087805 8.2844878,4.54797073 8.2844878,5.27115122 C8.2844878,5.99496585 8.87234146,6.58345366 9.59691707,6.58345366 C10.3214927,6.58345366 10.9078244,5.99496585 10.9078244,5.27115122 C10.9078244,4.54797073 10.3214927,3.96087805 9.59691707,3.96087805" id="Fill-4"></path>
                        <path d="M5.51339512,3.96087805 C4.78958049,3.96087805 4.2024878,4.54797073 4.2024878,5.27115122 C4.2024878,5.99496585 4.78958049,6.58345366 5.51339512,6.58345366 C6.23720976,6.58345366 6.82569756,5.99496585 6.82569756,5.27115122 C6.82569756,4.54797073 6.23720976,3.96087805 5.51339512,3.96087805" id="Fill-5"></path>
                        <path d="M4.2024878,26.6341463 L21.7509659,26.6341463 L21.7509659,14.5454146 L4.2024878,14.5454146 L4.2024878,26.6341463 Z M5.34395122,15.6870049 L20.6095024,15.6870049 L20.6095024,25.4928098 L5.34395122,25.4928098 L5.34395122,15.6870049 Z" id="Fill-6"></path>
                    </g>
                </g>
            </g>
        </g>
    </g>
</svg>