<?xml version="1.0" encoding="UTF-8" standalone="no"?>
<svg width="47px" height="43px" viewBox="0 0 47 43" version="1.1" xmlns="http://www.w3.org/2000/svg" xmlns:xlink="http://www.w3.org/1999/xlink" xmlns:sketch="http://www.bohemiancoding.com/sketch/ns">
    <!-- Generator: Sketch 3.3.3 (12081) - http://www.bohemiancoding.com/sketch -->
    <title>ico-washDry</title>
    <desc>Created with Sketch.</desc>
    <defs></defs>
    <g id="Page-1" stroke="none" stroke-width="1" fill="none" fill-rule="evenodd" sketch:type="MSPage">
        <g id="organization-jobDetailView" sketch:type="MSArtboardGroup" transform="translate(-523.000000, -829.000000)" fill="#4A4A4A">
            <g id="Additional-Services" sketch:type="MSLayerGroup" transform="translate(69.000000, 829.000000)">
                <g id="Wash-and-fold" transform="translate(446.000000, 0.000000)" sketch:type="MSShapeGroup">
                    <g id="ico-washDry" transform="translate(8.000000, 0.000000)">
                        <g id="Group">
                            <path d="M23.5906278,31.9016188 C23.82387,31.9016188 24.0121525,31.7133425 24.0121525,31.4800942 C24.0121525,31.2475538 23.8238698,31.0585695 23.5906278,31.0585695 C23.3580874,31.0585695 23.1691031,31.2475531 23.1691031,31.4800942 C23.1691031,31.7133427 23.3580868,31.9016188 23.5906278,31.9016188 L23.5906278,31.9016188 Z M23.5906278,26.5623767 C23.82387,26.5623767 24.0121525,26.3733931 24.0121525,26.140852 C24.0121525,25.9083116 23.8238698,25.7193274 23.5906278,25.7193274 C23.3580874,25.7193274 23.1691031,25.908311 23.1691031,26.140852 C23.1691031,26.3733924 23.3580868,26.5623767 23.5906278,26.5623767 L23.5906278,26.5623767 Z M23.5906278,21.2231345 C23.82387,21.2231345 24.0121525,21.0341509 24.0121525,20.8016099 C24.0121525,20.5683676 23.8238698,20.3800852 23.5906278,20.3800852 C23.3580874,20.3800852 23.1691031,20.5683678 23.1691031,20.8016099 C23.1691031,21.0341503 23.3580868,21.2231345 23.5906278,21.2231345 L23.5906278,21.2231345 Z M24.4695067,34.9226861 L24.6802691,34.9226861 L24.6802691,34.2903991 L24.4695067,34.2903991 L24.4695067,34.9226861 L24.4695067,34.9226861 Z M23.5906278,15.8836816 C23.82387,15.8836816 24.0121525,15.694698 24.0121525,15.462157 C24.0121525,15.2289147 23.8238698,15.0406323 23.5906278,15.0406323 C23.3580874,15.0406323 23.1691031,15.2289149 23.1691031,15.462157 C23.1691031,15.6946974 23.3580868,15.8836816 23.5906278,15.8836816 L23.5906278,15.8836816 Z M24.0121525,36.8195471 C24.0121525,36.5863048 23.8238698,36.3980224 23.5906278,36.3980224 C23.3580874,36.3980224 23.1691031,36.5863051 23.1691031,36.8195471 C23.1691031,37.0520875 23.3580868,37.2410717 23.5906278,37.2410717 C23.82387,37.2410717 24.0121525,37.0520881 24.0121525,36.8195471 L24.0121525,36.8195471 Z M24.4863677,40.5253812 L23.8540807,40.5253812 L23.8540807,40.7361435 L24.4695067,40.7361435 L24.4695067,41.2454844 L24.6802691,41.2454844 L24.6802691,40.6131974 L24.4863681,40.6131974 L24.4863681,40.525382 L24.4863677,40.5253812 Z M24.4695067,33.6581121 L24.6802691,33.6581121 L24.6802691,33.0258251 L24.4695067,33.0258251 L24.4695067,33.6581121 L24.4695067,33.6581121 Z M24.4695067,38.7164081 L24.6802691,38.7164081 L24.6802691,38.0841211 L24.4695067,38.0841211 L24.4695067,38.7164081 L24.4695067,38.7164081 Z M24.4695067,37.4518341 L24.6802691,37.4518341 L24.6802691,36.8195471 L24.4695067,36.8195471 L24.4695067,37.4518341 L24.4695067,37.4518341 Z M24.4695067,39.9809821 L24.6802691,39.9809821 L24.6802691,39.3486951 L24.4695067,39.3486951 L24.4695067,39.9809821 L24.4695067,39.9809821 Z M24.4695067,36.1872601 L24.6802691,36.1872601 L24.6802691,35.5549731 L24.4695067,35.5549731 L24.4695067,36.1872601 L24.4695067,36.1872601 Z M22.7924709,2.97533184 L22.7742041,2.7652705 C22.5500921,2.78493943 22.3365224,2.81374162 22.1384058,2.85097637 L22.1770457,3.05752578 C22.3681359,3.02240097 22.5753865,2.99500081 22.7924717,2.97533184 L22.7924709,2.97533184 Z M21.5778475,3.2071704 L21.5125116,3.00694998 C21.2933167,3.07790734 21.0923928,3.16361321 20.9146484,3.2619703 L21.0165177,3.44603368 C21.1823175,3.35470635 21.3713002,3.27391462 21.5778473,3.2071704 L21.5778475,3.2071704 Z M2.61977578,35.5197758 C2.85302013,35.5197758 3.04130045,35.3307922 3.04130045,35.0982511 C3.04130045,34.8657107 2.8530195,34.6767265 2.61977578,34.6767265 C2.38723538,34.6767265 2.19825112,34.8657101 2.19825112,35.0982511 C2.19825112,35.3307915 2.38723475,35.5197758 2.61977578,35.5197758 L2.61977578,35.5197758 Z M24.4695067,32.3935381 L24.6802691,32.3935381 L24.6802691,31.7612511 L24.4695067,31.7612511 L24.4695067,32.3935381 L24.4695067,32.3935381 Z M13.7374888,40.7361435 L14.3697758,40.7361435 L14.3697758,40.5253812 L13.7374888,40.5253812 L13.7374888,40.7361435 L13.7374888,40.7361435 Z M25.3209865,2.89102691 C25.1242749,2.84817724 24.9114058,2.81374689 24.6872938,2.78775547 L24.6634087,2.99781681 C24.8804939,3.02240624 25.0863392,3.05542131 25.2760231,3.09687531 L25.3209857,2.89102691 L25.3209865,2.89102691 Z M24.0416592,2.95004036 L24.0500883,2.73927803 C23.8484593,2.73155325 23.6250523,2.72874248 23.4121824,2.73225433 L23.4156942,2.94301666 C23.6243468,2.93950481 23.8435417,2.94231558 24.0416583,2.95004036 L24.0416592,2.95004036 Z M17.5312108,40.7361435 L18.1634978,40.7361435 L18.1634978,40.5253812 L17.5312108,40.5253812 L17.5312108,40.7361435 L17.5312108,40.7361435 Z M19.4280717,40.5253812 L18.7957848,40.5253812 L18.7957848,40.7361435 L19.4280717,40.7361435 L19.4280717,40.5253812 L19.4280717,40.5253812 Z M20.6926457,40.5253812 L20.0603587,40.5253812 L20.0603587,40.7361435 L20.6926457,40.7361435 L20.6926457,40.5253812 L20.6926457,40.5253812 Z M15.0020628,40.7361435 L15.6343498,40.7361435 L15.6343498,40.5253812 L15.0020628,40.5253812 L15.0020628,40.7361435 L15.0020628,40.7361435 Z M16.2666368,40.7361435 L16.8989238,40.7361435 L16.8989238,40.5253812 L16.2666368,40.5253812 L16.2666368,40.7361435 L16.2666368,40.7361435 Z M23.5906278,10.5444395 C23.82387,10.5444395 24.0121525,10.3554558 24.0121525,10.1229148 C24.0121525,9.89037439 23.8238698,9.70139013 23.5906278,9.70139013 C23.3580874,9.70139013 23.1691031,9.89037376 23.1691031,10.1229148 C23.1691031,10.3554552 23.3580868,10.5444395 23.5906278,10.5444395 L23.5906278,10.5444395 Z M26.5271794,3.36165919 C26.3585689,3.24995537 26.1611526,3.15159786 25.9412601,3.0694035 L25.868193,3.26681952 C26.0726327,3.343392 26.2552939,3.43472565 26.410554,3.53729714 L26.5271783,3.36165961 L26.5271794,3.36165919 Z M31.4415247,40.7361435 L32.0738117,40.7361435 L32.0738117,40.5253812 L31.4415247,40.5253812 L31.4415247,40.7361435 L31.4415247,40.7361435 Z M30.1769507,40.7361435 L30.8092377,40.7361435 L30.8092377,40.5253812 L30.1769507,40.5253812 L30.1769507,40.7361435 L30.1769507,40.7361435 Z M32.3134484,16.0965516 L31.695213,16.0965516 L31.695213,16.3023934 L32.3134484,16.3023934 L32.3134484,16.0965516 L32.3134484,16.0965516 Z M28.9123767,40.7361435 L29.5446637,40.7361435 L29.5446637,40.5253812 L28.9123767,40.5253812 L28.9123767,40.7361435 L28.9123767,40.7361435 Z M25.1186547,40.7361435 L25.7509417,40.7361435 L25.7509417,40.5253812 L25.1186547,40.5253812 L25.1186547,40.7361435 L25.1186547,40.7361435 Z M31.0775381,16.0965516 L30.4593026,16.0965516 L30.4593026,16.3023934 L31.0775381,16.3023934 L31.0775381,16.0965516 L31.0775381,16.0965516 Z M27.6478027,40.7361435 L28.2800897,40.7361435 L28.2800897,40.5253812 L27.6478027,40.5253812 L27.6478027,40.7361435 L27.6478027,40.7361435 Z M26.3832287,40.7361435 L27.0155157,40.7361435 L27.0155157,40.5253812 L26.3832287,40.5253812 L26.3832287,40.7361435 L26.3832287,40.7361435 Z M27.3702287,16.0965516 L26.7519932,16.0965516 L26.7519932,16.3023934 L27.3702287,16.3023934 L27.3702287,16.0965516 L27.3702287,16.0965516 Z M44.4386054,34.6767265 C44.2060608,34.6767265 44.0170807,34.8657101 44.0170807,35.0982511 C44.0170807,35.3307915 44.2060612,35.5197758 44.4386054,35.5197758 C44.6718476,35.5197758 44.86013,35.3307922 44.86013,35.0982511 C44.86013,34.8657107 44.6718474,34.6767265 44.4386054,34.6767265 L44.4386054,34.6767265 Z M29.8418386,16.0965516 L29.2236031,16.0965516 L29.2236031,16.3023934 L29.8418386,16.3023934 L29.8418386,16.0965516 L29.8418386,16.0965516 Z M32.7060987,40.7361435 L33.3383857,40.7361435 L33.3383857,40.5253812 L32.7060987,40.5253812 L32.7060987,40.7361435 L32.7060987,40.7361435 Z M45.8835919,33.1887444 L46.1168363,33.117787 L36.7224636,6.87998435 L36.7540767,6.70575556 L36.5166192,6.55330526 C35.2731194,5.75802522 29.5530318,3.49866356 28.5308345,3.09749854 C28.4711171,2.84950083 28.4001597,2.64084822 28.3137493,2.48980118 L28.297589,2.49682488 C28.1170375,1.93409367 27.3196518,0.515661069 23.8575222,0.471400979 C23.7823487,0.470693465 23.7085838,0.470693465 23.6355199,0.470693465 C20.0940172,0.470693465 19.3668871,1.58071333 18.8090625,2.49542185 L18.795713,2.48980031 C18.7114093,2.63803768 18.6411546,2.84106946 18.5828451,3.08204247 C17.6695403,3.44034054 11.8180698,5.74818596 10.5598187,6.55329807 L10.3223612,6.70574837 L10.3476533,6.84836407 L0.941330416,33.1177811 L1.1752766,33.1887385 L0.121464945,36.4232237 L6.46119589,38.4697301 L7.65130122,35.1642812 L7.93231696,35.2499934 L11.7878555,24.3325046 L11.7878555,42.369545 L35.2878555,42.369545 L35.2878555,24.382371 L39.1258376,35.2499934 L39.4068554,35.1642812 L40.5969608,38.4697301 L46.9373872,36.4232237 L45.8835756,33.1887385 L45.8835919,33.1887444 Z M27.8564574,4.14991031 C28.0082065,5.63508081 27.9611376,8.00053812 27.8592682,9.7610991 L24.4252543,8.44594426 C26.3256308,6.4092783 27.3351866,5.05125861 27.856465,4.14991242 L27.8564574,4.14991031 Z M23.6201345,1.31368161 C23.6946038,1.31368161 23.7704783,1.31368161 23.8470539,1.31438913 C27.2550808,1.35794633 27.5094077,2.79815173 27.5115153,2.8129072 L27.6126804,2.80167058 L27.5473445,2.83047293 C27.5508564,2.84170956 27.5220541,2.83819771 27.5192434,2.84873968 C27.4953551,2.95763278 27.4194805,3.20352013 27.1806178,3.63066583 C27.1405726,3.70232418 27.0935034,3.78101272 27.0429192,3.86461623 C27.0330848,3.84845272 27.0239514,3.83299682 27.0127115,3.81683957 L26.8412903,3.94048751 C26.8722022,3.9826425 26.8967916,4.02408997 26.9185703,4.06413545 C26.3979873,4.87767594 25.4123215,6.17175877 23.5548035,8.14027894 C21.7872093,6.26730576 20.8036595,5.00272334 20.2591761,4.17373186 C20.3280237,4.04235906 20.4200586,3.91800971 20.5345729,3.80279437 L20.3849302,3.654557 C20.2851705,3.75501771 20.201568,3.86250861 20.1313115,3.97491364 C19.7224346,3.3229583 19.6149459,2.98081727 19.5875468,2.83960862 C20.0659772,2.06680848 20.6856185,1.31368512 23.6201257,1.31368512 L23.6201345,1.31368161 Z M5.94419327,37.4166368 L1.1844843,35.8808791 L1.98116592,33.4346239 L6.84414843,34.9183929 L5.94419327,37.416622 L5.94419327,37.4166368 Z M11.7879372,21.8006233 L7.40618834,34.2082018 L2.03316099,32.5691727 L10.6350673,8.54711439 C11.0439462,11.086105 11.7879372,16.1654772 11.7879372,19.5545355 L11.7879372,21.8005453 L11.7879372,21.8006233 Z M21.9045291,40.5253812 L21.3249327,40.5253812 L21.3249327,40.7361435 L21.9045291,40.7361435 L21.9045291,41.5265022 L12.6309865,41.5265022 L12.6309865,40.7361435 L13.1052018,40.7361435 L13.1052018,40.5253812 L12.6309865,40.5253812 L12.6309865,19.5545291 C12.6309865,15.3434978 11.5069215,8.59769103 11.2526009,7.12376682 C12.6380113,6.36291691 16.8701126,4.66697354 18.4227354,4.05154753 C18.1768474,6.30600897 18.4107913,9.87912601 18.4459195,10.3891709 L18.4859648,10.9568234 L21.9045298,9.64798507 L21.9045298,40.525299 L21.9045291,40.5253812 Z M19.2510314,9.76103587 C19.1491622,8.00046857 19.1013903,5.63500493 19.2538422,4.14984709 C19.775127,5.0512017 20.7839767,6.40921928 22.6843574,8.44587892 L19.251039,9.76103377 L19.2510314,9.76103587 Z M34.4448879,19.5545291 L34.4448879,40.5253812 L33.9706726,40.5253812 L33.9706726,40.7361435 L34.4448879,40.7361435 L34.4448879,41.5265022 L22.7475785,41.5265022 L22.7475785,40.7361435 L23.2217937,40.7361435 L23.2217937,40.5253812 L22.7475785,40.5253812 L22.7475785,9.32475785 L23.5547982,9.01563906 L24.4695067,9.36550453 L24.4695067,9.63106717 L24.6802691,9.63106717 L24.6802691,9.44629648 L28.6243278,10.9567648 L28.6643731,10.3891123 C28.6994979,9.88046688 28.9327431,6.32070374 28.6889625,4.06552571 C30.26968,4.69148984 34.4484015,6.36774589 35.8232674,7.12368715 C35.5689468,8.5976219 34.4448839,15.3434181 34.4448839,19.5544495 L34.4448879,19.5545291 Z M35.2879372,21.8503632 L35.2879372,19.5544659 C35.2879372,16.181552 36.0256054,11.130991 36.4358901,8.5800713 L45.0251506,32.5690399 L39.6521233,34.208069 L35.2879309,21.8503569 L35.2879372,21.8503632 Z M41.1140404,37.4166368 L40.2140873,34.9184076 L45.0770698,33.4346387 L45.8737514,35.8808939 L41.1140425,37.4166515 L41.1140404,37.4166368 Z M28.606139,16.0965516 L27.9879035,16.0965516 L27.9879035,16.3023934 L28.606139,16.3023934 L28.606139,16.0965516 L28.606139,16.0965516 Z M24.4695067,10.8957803 L24.6802691,10.8957803 L24.6802691,10.2634933 L24.4695067,10.2634933 L24.4695067,10.8957803 L24.4695067,10.8957803 Z M33.0749327,14.8650673 L26.0143946,14.8650673 L26.0143946,20.9771749 C26.0143946,21.9803994 26.8307488,22.7974575 27.8346772,22.7974575 L31.2546543,22.7974575 C32.258587,22.7974575 33.0749391,21.9803994 33.0749391,20.9771749 L33.0749391,14.8650673 L33.0749327,14.8650673 Z M32.6534081,20.9771749 C32.6534081,21.747859 32.0260382,22.3759328 31.254648,22.3759328 L27.8346709,22.3759328 C27.0632829,22.3759328 26.435913,21.747859 26.435913,20.9771749 L26.435913,15.2865919 L32.6534017,15.2865919 L32.6534017,20.9771749 L32.6534081,20.9771749 Z M24.4695067,26.0706682 L24.6802691,26.0706682 L24.6802691,25.4383812 L24.4695067,25.4383812 L24.4695067,26.0706682 L24.4695067,26.0706682 Z M24.4695067,24.8060942 L24.6802691,24.8060942 L24.6802691,24.1738072 L24.4695067,24.1738072 L24.4695067,24.8060942 L24.4695067,24.8060942 Z M24.4695067,31.1289641 L24.6802691,31.1289641 L24.6802691,30.4966771 L24.4695067,30.4966771 L24.4695067,31.1289641 L24.4695067,31.1289641 Z M24.4695067,23.5415202 L24.6802691,23.5415202 L24.6802691,22.9092332 L24.4695067,22.9092332 L24.4695067,23.5415202 L24.4695067,23.5415202 Z M24.4695067,28.5998161 L24.6802691,28.5998161 L24.6802691,27.9675291 L24.4695067,27.9675291 L24.4695067,28.5998161 L24.4695067,28.5998161 Z M24.4695067,27.3352422 L24.6802691,27.3352422 L24.6802691,26.7029552 L24.4695067,26.7029552 L24.4695067,27.3352422 L24.4695067,27.3352422 Z M24.4695067,29.8643901 L24.6802691,29.8643901 L24.6802691,29.2321031 L24.4695067,29.2321031 L24.4695067,29.8643901 L24.4695067,29.8643901 Z M24.4695067,22.2769462 L24.6802691,22.2769462 L24.6802691,21.6446592 L24.4695067,21.6446592 L24.4695067,22.2769462 L24.4695067,22.2769462 Z M24.4695067,18.4832242 L24.6802691,18.4832242 L24.6802691,17.8509372 L24.4695067,17.8509372 L24.4695067,18.4832242 L24.4695067,18.4832242 Z M24.4695067,14.6895022 L24.6802691,14.6895022 L24.6802691,14.0572152 L24.4695067,14.0572152 L24.4695067,14.6895022 L24.4695067,14.6895022 Z M24.4695067,15.9540762 L24.6802691,15.9540762 L24.6802691,15.3217892 L24.4695067,15.3217892 L24.4695067,15.9540762 L24.4695067,15.9540762 Z M24.4695067,13.4249283 L24.6802691,13.4249283 L24.6802691,12.7926413 L24.4695067,12.7926413 L24.4695067,13.4249283 L24.4695067,13.4249283 Z M24.4695067,17.2186502 L24.6802691,17.2186502 L24.6802691,16.5863632 L24.4695067,16.5863632 L24.4695067,17.2186502 L24.4695067,17.2186502 Z M24.4695067,19.7477982 L24.6802691,19.7477982 L24.6802691,19.1155112 L24.4695067,19.1155112 L24.4695067,19.7477982 L24.4695067,19.7477982 Z M24.4695067,21.0123722 L24.6802691,21.0123722 L24.6802691,20.3800852 L24.4695067,20.3800852 L24.4695067,21.0123722 L24.4695067,21.0123722 Z M24.4695067,12.1603543 L24.6802691,12.1603543 L24.6802691,11.5280673 L24.4695067,11.5280673 L24.4695067,12.1603543 L24.4695067,12.1603543 Z" id="Shape"></path>
                            <path d="M23.5906278,31.4800942 C23.82387,31.4800942 24.0121525,31.2918179 24.0121525,31.0585695 C24.0121525,30.8260291 23.8238698,30.6370448 23.5906278,30.6370448 C23.3580874,30.6370448 23.1691031,30.8260285 23.1691031,31.0585695 C23.1691031,31.2918181 23.3580868,31.4800942 23.5906278,31.4800942 L23.5906278,31.4800942 Z M23.5906278,26.140852 C23.82387,26.140852 24.0121525,25.9518684 24.0121525,25.7193274 C24.0121525,25.486787 23.8238698,25.2978027 23.5906278,25.2978027 C23.3580874,25.2978027 23.1691031,25.4867863 23.1691031,25.7193274 C23.1691031,25.9518678 23.3580868,26.140852 23.5906278,26.140852 L23.5906278,26.140852 Z M23.5906278,20.8016099 C23.82387,20.8016099 24.0121525,20.6126262 24.0121525,20.3800852 C24.0121525,20.146843 23.8238698,19.9585605 23.5906278,19.9585605 C23.3580874,19.9585605 23.1691031,20.1468432 23.1691031,20.3800852 C23.1691031,20.6126256 23.3580868,20.8016099 23.5906278,20.8016099 L23.5906278,20.8016099 Z M24.4695067,34.5011614 L24.6802691,34.5011614 L24.6802691,33.8688744 L24.4695067,33.8688744 L24.4695067,34.5011614 L24.4695067,34.5011614 Z M23.5906278,15.462157 C23.82387,15.462157 24.0121525,15.2731733 24.0121525,15.0406323 C24.0121525,14.80739 23.8238698,14.6191076 23.5906278,14.6191076 C23.3580874,14.6191076 23.1691031,14.8073903 23.1691031,15.0406323 C23.1691031,15.2731727 23.3580868,15.462157 23.5906278,15.462157 L23.5906278,15.462157 Z M24.0121525,36.3980224 C24.0121525,36.1647802 23.8238698,35.9764978 23.5906278,35.9764978 C23.3580874,35.9764978 23.1691031,36.1647804 23.1691031,36.3980224 C23.1691031,36.6305628 23.3580868,36.8195471 23.5906278,36.8195471 C23.82387,36.8195471 24.0121525,36.6305635 24.0121525,36.3980224 L24.0121525,36.3980224 Z M24.4863677,40.1038565 L23.8540807,40.1038565 L23.8540807,40.3146188 L24.4695067,40.3146188 L24.4695067,40.8239597 L24.6802691,40.8239597 L24.6802691,40.1916727 L24.4863681,40.1916727 L24.4863681,40.1038573 L24.4863677,40.1038565 Z M24.4695067,33.2365874 L24.6802691,33.2365874 L24.6802691,32.6043004 L24.4695067,32.6043004 L24.4695067,33.2365874 L24.4695067,33.2365874 Z M24.4695067,38.2948834 L24.6802691,38.2948834 L24.6802691,37.6625964 L24.4695067,37.6625964 L24.4695067,38.2948834 L24.4695067,38.2948834 Z M24.4695067,37.0303094 L24.6802691,37.0303094 L24.6802691,36.3980224 L24.4695067,36.3980224 L24.4695067,37.0303094 L24.4695067,37.0303094 Z M24.4695067,39.5594574 L24.6802691,39.5594574 L24.6802691,38.9271704 L24.4695067,38.9271704 L24.4695067,39.5594574 L24.4695067,39.5594574 Z M24.4695067,35.7657354 L24.6802691,35.7657354 L24.6802691,35.1334484 L24.4695067,35.1334484 L24.4695067,35.7657354 L24.4695067,35.7657354 Z M22.7924709,2.55380717 L22.7742041,2.34374584 C22.5500921,2.36341477 22.3365224,2.39221696 22.1384058,2.42945171 L22.1770457,2.63600111 C22.3681359,2.6008763 22.5753865,2.57347615 22.7924717,2.55380717 L22.7924709,2.55380717 Z M21.5778475,2.78564574 L21.5125116,2.58542532 C21.2933167,2.65638267 21.0923928,2.74208854 20.9146484,2.84044563 L21.0165177,3.02450901 C21.1823175,2.93318169 21.3713002,2.85238996 21.5778473,2.78564574 L21.5778475,2.78564574 Z M2.61977578,35.0982511 C2.85302013,35.0982511 3.04130045,34.9092675 3.04130045,34.6767265 C3.04130045,34.4441861 2.8530195,34.2552018 2.61977578,34.2552018 C2.38723538,34.2552018 2.19825112,34.4441854 2.19825112,34.6767265 C2.19825112,34.9092669 2.38723475,35.0982511 2.61977578,35.0982511 L2.61977578,35.0982511 Z M24.4695067,31.9720135 L24.6802691,31.9720135 L24.6802691,31.3397265 L24.4695067,31.3397265 L24.4695067,31.9720135 L24.4695067,31.9720135 Z M13.7374888,40.3146188 L14.3697758,40.3146188 L14.3697758,40.1038565 L13.7374888,40.1038565 L13.7374888,40.3146188 L13.7374888,40.3146188 Z M25.3209865,2.46950224 C25.1242749,2.42665257 24.9114058,2.39222223 24.6872938,2.36623081 L24.6634087,2.57629214 C24.8804939,2.60088157 25.0863392,2.63389665 25.2760231,2.67535065 L25.3209857,2.46950224 L25.3209865,2.46950224 Z M24.0416592,2.5285157 L24.0500883,2.31775336 C23.8484593,2.31002859 23.6250523,2.30721782 23.4121824,2.31072967 L23.4156942,2.521492 C23.6243468,2.51798015 23.8435417,2.52079091 24.0416583,2.5285157 L24.0416592,2.5285157 Z M17.5312108,40.3146188 L18.1634978,40.3146188 L18.1634978,40.1038565 L17.5312108,40.1038565 L17.5312108,40.3146188 L17.5312108,40.3146188 Z M19.4280717,40.1038565 L18.7957848,40.1038565 L18.7957848,40.3146188 L19.4280717,40.3146188 L19.4280717,40.1038565 L19.4280717,40.1038565 Z M20.6926457,40.1038565 L20.0603587,40.1038565 L20.0603587,40.3146188 L20.6926457,40.3146188 L20.6926457,40.1038565 L20.6926457,40.1038565 Z M15.0020628,40.3146188 L15.6343498,40.3146188 L15.6343498,40.1038565 L15.0020628,40.1038565 L15.0020628,40.3146188 L15.0020628,40.3146188 Z M16.2666368,40.3146188 L16.8989238,40.3146188 L16.8989238,40.1038565 L16.2666368,40.1038565 L16.2666368,40.3146188 L16.2666368,40.3146188 Z M23.5906278,10.1229148 C23.82387,10.1229148 24.0121525,9.93393117 24.0121525,9.70139013 C24.0121525,9.46884973 23.8238698,9.27986547 23.5906278,9.27986547 C23.3580874,9.27986547 23.1691031,9.4688491 23.1691031,9.70139013 C23.1691031,9.93393054 23.3580868,10.1229148 23.5906278,10.1229148 L23.5906278,10.1229148 Z M26.5271794,2.94013453 C26.3585689,2.8284307 26.1611526,2.73007319 25.9412601,2.64787883 L25.868193,2.84529485 C26.0726327,2.92186734 26.2552939,3.01320098 26.410554,3.11577248 L26.5271783,2.94013495 L26.5271794,2.94013453 Z M31.4415247,40.3146188 L32.0738117,40.3146188 L32.0738117,40.1038565 L31.4415247,40.1038565 L31.4415247,40.3146188 L31.4415247,40.3146188 Z M30.1769507,40.3146188 L30.8092377,40.3146188 L30.8092377,40.1038565 L30.1769507,40.1038565 L30.1769507,40.3146188 L30.1769507,40.3146188 Z M32.3134484,15.6750269 L31.695213,15.6750269 L31.695213,15.8808688 L32.3134484,15.8808688 L32.3134484,15.6750269 L32.3134484,15.6750269 Z M28.9123767,40.3146188 L29.5446637,40.3146188 L29.5446637,40.1038565 L28.9123767,40.1038565 L28.9123767,40.3146188 L28.9123767,40.3146188 Z M25.1186547,40.3146188 L25.7509417,40.3146188 L25.7509417,40.1038565 L25.1186547,40.1038565 L25.1186547,40.3146188 L25.1186547,40.3146188 Z M31.0775381,15.6750269 L30.4593026,15.6750269 L30.4593026,15.8808688 L31.0775381,15.8808688 L31.0775381,15.6750269 L31.0775381,15.6750269 Z M27.6478027,40.3146188 L28.2800897,40.3146188 L28.2800897,40.1038565 L27.6478027,40.1038565 L27.6478027,40.3146188 L27.6478027,40.3146188 Z M26.3832287,40.3146188 L27.0155157,40.3146188 L27.0155157,40.1038565 L26.3832287,40.1038565 L26.3832287,40.3146188 L26.3832287,40.3146188 Z M27.3702287,15.6750269 L26.7519932,15.6750269 L26.7519932,15.8808688 L27.3702287,15.8808688 L27.3702287,15.6750269 L27.3702287,15.6750269 Z M44.4386054,34.2552018 C44.2060608,34.2552018 44.0170807,34.4441854 44.0170807,34.6767265 C44.0170807,34.9092669 44.2060612,35.0982511 44.4386054,35.0982511 C44.6718476,35.0982511 44.86013,34.9092675 44.86013,34.6767265 C44.86013,34.4441861 44.6718474,34.2552018 44.4386054,34.2552018 L44.4386054,34.2552018 Z M29.8418386,15.6750269 L29.2236031,15.6750269 L29.2236031,15.8808688 L29.8418386,15.8808688 L29.8418386,15.6750269 L29.8418386,15.6750269 Z M32.7060987,40.3146188 L33.3383857,40.3146188 L33.3383857,40.1038565 L32.7060987,40.1038565 L32.7060987,40.3146188 L32.7060987,40.3146188 Z M45.8835919,32.7672197 L46.1168363,32.6962624 L36.7224636,6.45845969 L36.7540767,6.2842309 L36.5166192,6.1317806 C35.2731194,5.33650056 29.5530318,3.0771389 28.5308345,2.67597387 C28.4711171,2.42797616 28.4001597,2.21932356 28.3137493,2.06827652 L28.297589,2.07530022 C28.1170375,1.51256901 27.3196518,0.0941364054 23.8575222,0.0498763157 C23.7823487,0.0491688013 23.7085838,0.0491688013 23.6355199,0.0491688013 C20.0940172,0.0491688013 19.3668871,1.15918867 18.8090625,2.07389719 L18.795713,2.06827565 C18.7114093,2.21651302 18.6411546,2.4195448 18.5828451,2.6605178 C17.6695403,3.01881587 11.8180698,5.3266613 10.5598187,6.13177341 L10.3223612,6.2842237 L10.3476533,6.42683941 L0.941330416,32.6962564 L1.1752766,32.7672138 L0.121464945,36.001699 L6.46119589,38.0482055 L7.65130122,34.7427566 L7.93231696,34.8284688 L11.7878555,23.91098 L11.7878555,41.9480203 L35.2878555,41.9480203 L35.2878555,23.9608464 L39.1258376,34.8284688 L39.4068554,34.7427566 L40.5969608,38.0482055 L46.9373872,36.001699 L45.8835756,32.7672138 L45.8835919,32.7672197 Z M27.8564574,3.72838565 C28.0082065,5.21355614 27.9611376,7.57901345 27.8592682,9.33957444 L24.4252543,8.0244196 C26.3256308,5.98775363 27.3351866,4.62973395 27.856465,3.72838776 L27.8564574,3.72838565 Z M23.6201345,0.892156951 C23.6946038,0.892156951 23.7704783,0.892156951 23.8470539,0.892864465 C27.2550808,0.936421662 27.5094077,2.37662707 27.5115153,2.39138254 L27.6126804,2.38014591 L27.5473445,2.40894827 C27.5508564,2.4201849 27.5220541,2.41667305 27.5192434,2.42721502 C27.4953551,2.53610812 27.4194805,2.78199547 27.1806178,3.20914116 C27.1405726,3.28079951 27.0935034,3.35948805 27.0429192,3.44309157 C27.0330848,3.42692806 27.0239514,3.41147216 27.0127115,3.39531491 L26.8412903,3.51896285 C26.8722022,3.56111784 26.8967916,3.60256531 26.9185703,3.64261078 C26.3979873,4.45615128 25.4123215,5.7502341 23.5548035,7.71875428 C21.7872093,5.8457811 20.8036595,4.58119868 20.2591761,3.7522072 C20.3280237,3.6208344 20.4200586,3.49648504 20.5345729,3.38126971 L20.3849302,3.23303234 C20.2851705,3.33349305 20.201568,3.44098394 20.1313115,3.55338898 C19.7224346,2.90143364 19.6149459,2.55929261 19.5875468,2.41808395 C20.0659772,1.64528382 20.6856185,0.892160456 23.6201257,0.892160456 L23.6201345,0.892156951 Z M5.94419327,36.9951121 L1.1844843,35.4593544 L1.98116592,33.0130993 L6.84414843,34.4968682 L5.94419327,36.9950974 L5.94419327,36.9951121 Z M11.7879372,21.3790987 L7.40618834,33.7866771 L2.03316099,32.147648 L10.6350673,8.12558973 C11.0439462,10.6645803 11.7879372,15.7439525 11.7879372,19.1330108 L11.7879372,21.3790207 L11.7879372,21.3790987 Z M21.9045291,40.1038565 L21.3249327,40.1038565 L21.3249327,40.3146188 L21.9045291,40.3146188 L21.9045291,41.1049776 L12.6309865,41.1049776 L12.6309865,40.3146188 L13.1052018,40.3146188 L13.1052018,40.1038565 L12.6309865,40.1038565 L12.6309865,19.1330045 C12.6309865,14.9219731 11.5069215,8.17616637 11.2526009,6.70224215 C12.6380113,5.94139224 16.8701126,4.24544888 18.4227354,3.63002287 C18.1768474,5.8844843 18.4107913,9.45760135 18.4459195,9.96764619 L18.4859648,10.5352987 L21.9045298,9.2264604 L21.9045298,40.1037743 L21.9045291,40.1038565 Z M19.2510314,9.33951121 C19.1491622,7.5789439 19.1013903,5.21348027 19.2538422,3.72832242 C19.775127,4.62967704 20.7839767,5.98769462 22.6843574,8.02435426 L19.251039,9.3395091 L19.2510314,9.33951121 Z M34.4448879,19.1330045 L34.4448879,40.1038565 L33.9706726,40.1038565 L33.9706726,40.3146188 L34.4448879,40.3146188 L34.4448879,41.1049776 L22.7475785,41.1049776 L22.7475785,40.3146188 L23.2217937,40.3146188 L23.2217937,40.1038565 L22.7475785,40.1038565 L22.7475785,8.90323318 L23.5547982,8.59411439 L24.4695067,8.94397987 L24.4695067,9.20954251 L24.6802691,9.20954251 L24.6802691,9.02477181 L28.6243278,10.5352401 L28.6643731,9.9675876 C28.6994979,9.45894222 28.9327431,5.89917908 28.6889625,3.64400105 C30.26968,4.26996517 34.4484015,5.94622123 35.8232674,6.70216248 C35.5689468,8.17609724 34.4448839,14.9218934 34.4448839,19.1329248 L34.4448879,19.1330045 Z M35.2879372,21.4288386 L35.2879372,19.1329413 C35.2879372,15.7600274 36.0256054,10.7094664 36.4358901,8.15854664 L45.0251506,32.1475152 L39.6521233,33.7865443 L35.2879309,21.4288322 L35.2879372,21.4288386 Z M41.1140404,36.9951121 L40.2140873,34.496883 L45.0770698,33.013114 L45.8737514,35.4593692 L41.1140425,36.9951269 L41.1140404,36.9951121 Z M28.606139,15.6750269 L27.9879035,15.6750269 L27.9879035,15.8808688 L28.606139,15.8808688 L28.606139,15.6750269 L28.606139,15.6750269 Z M24.4695067,10.4742556 L24.6802691,10.4742556 L24.6802691,9.84196861 L24.4695067,9.84196861 L24.4695067,10.4742556 L24.4695067,10.4742556 Z M33.0749327,14.4435426 L26.0143946,14.4435426 L26.0143946,20.5556502 C26.0143946,21.5588747 26.8307488,22.3759328 27.8346772,22.3759328 L31.2546543,22.3759328 C32.258587,22.3759328 33.0749391,21.5588747 33.0749391,20.5556502 L33.0749391,14.4435426 L33.0749327,14.4435426 Z M32.6534081,20.5556502 C32.6534081,21.3263343 32.0260382,21.9544082 31.254648,21.9544082 L27.8346709,21.9544082 C27.0632829,21.9544082 26.435913,21.3263343 26.435913,20.5556502 L26.435913,14.8650673 L32.6534017,14.8650673 L32.6534017,20.5556502 L32.6534081,20.5556502 Z M24.4695067,25.6491435 L24.6802691,25.6491435 L24.6802691,25.0168565 L24.4695067,25.0168565 L24.4695067,25.6491435 L24.4695067,25.6491435 Z M24.4695067,24.3845695 L24.6802691,24.3845695 L24.6802691,23.7522825 L24.4695067,23.7522825 L24.4695067,24.3845695 L24.4695067,24.3845695 Z M24.4695067,30.7074395 L24.6802691,30.7074395 L24.6802691,30.0751525 L24.4695067,30.0751525 L24.4695067,30.7074395 L24.4695067,30.7074395 Z M24.4695067,23.1199955 L24.6802691,23.1199955 L24.6802691,22.4877085 L24.4695067,22.4877085 L24.4695067,23.1199955 L24.4695067,23.1199955 Z M24.4695067,28.1782915 L24.6802691,28.1782915 L24.6802691,27.5460045 L24.4695067,27.5460045 L24.4695067,28.1782915 L24.4695067,28.1782915 Z M24.4695067,26.9137175 L24.6802691,26.9137175 L24.6802691,26.2814305 L24.4695067,26.2814305 L24.4695067,26.9137175 L24.4695067,26.9137175 Z M24.4695067,29.4428655 L24.6802691,29.4428655 L24.6802691,28.8105785 L24.4695067,28.8105785 L24.4695067,29.4428655 L24.4695067,29.4428655 Z M24.4695067,21.8554215 L24.6802691,21.8554215 L24.6802691,21.2231345 L24.4695067,21.2231345 L24.4695067,21.8554215 L24.4695067,21.8554215 Z M24.4695067,18.0616996 L24.6802691,18.0616996 L24.6802691,17.4294126 L24.4695067,17.4294126 L24.4695067,18.0616996 L24.4695067,18.0616996 Z M24.4695067,14.2679776 L24.6802691,14.2679776 L24.6802691,13.6356906 L24.4695067,13.6356906 L24.4695067,14.2679776 L24.4695067,14.2679776 Z M24.4695067,15.5325516 L24.6802691,15.5325516 L24.6802691,14.9002646 L24.4695067,14.9002646 L24.4695067,15.5325516 L24.4695067,15.5325516 Z M24.4695067,13.0034036 L24.6802691,13.0034036 L24.6802691,12.3711166 L24.4695067,12.3711166 L24.4695067,13.0034036 L24.4695067,13.0034036 Z M24.4695067,16.7971256 L24.6802691,16.7971256 L24.6802691,16.1648386 L24.4695067,16.1648386 L24.4695067,16.7971256 L24.4695067,16.7971256 Z M24.4695067,19.3262735 L24.6802691,19.3262735 L24.6802691,18.6939865 L24.4695067,18.6939865 L24.4695067,19.3262735 L24.4695067,19.3262735 Z M24.4695067,20.5908475 L24.6802691,20.5908475 L24.6802691,19.9585605 L24.4695067,19.9585605 L24.4695067,20.5908475 L24.4695067,20.5908475 Z M24.4695067,11.7388296 L24.6802691,11.7388296 L24.6802691,11.1065426 L24.4695067,11.1065426 L24.4695067,11.7388296 L24.4695067,11.7388296 Z" id="Shape"></path>
                            <path d="M23.5906278,19.9585605 C23.3580874,19.9585605 23.1691031,20.1468432 23.1691031,20.3800852 C23.1691031,20.4573652 23.1915828,20.5283226 23.2281164,20.5908475 C23.3004759,20.4650899 23.4353668,20.3800852 23.5906276,20.3800852 C23.7465896,20.3800852 23.8807757,20.4650899 23.9538406,20.5908475 C23.9903742,20.5283226 24.0121527,20.4573652 24.0121527,20.3800852 C24.0121527,20.146843 23.82387,19.9585605 23.590628,19.9585605 L23.5906278,19.9585605 Z M23.5906278,30.6370448 C23.3580874,30.6370448 23.1691031,30.8260285 23.1691031,31.0585695 C23.1691031,31.1358495 23.1915828,31.2068069 23.2281164,31.2693318 C23.3004759,31.1435807 23.4353668,31.0585695 23.5906276,31.0585695 C23.7465896,31.0585695 23.8807757,31.1435807 23.9538406,31.2693318 C23.9903742,31.2068069 24.0121527,31.1358495 24.0121527,31.0585695 C24.0121527,30.8260291 23.82387,30.6370448 23.590628,30.6370448 L23.5906278,30.6370448 Z M23.5906278,14.6191076 C23.3580874,14.6191076 23.1691031,14.8073903 23.1691031,15.0406323 C23.1691031,15.1172111 23.1915828,15.1888697 23.2281164,15.2513946 C23.3004759,15.1256435 23.4353668,15.0406323 23.5906276,15.0406323 C23.7465896,15.0406323 23.8807757,15.1256435 23.9538406,15.2513946 C23.9903742,15.1888697 24.0121527,15.1172111 24.0121527,15.0406323 C24.0121527,14.80739 23.82387,14.6191076 23.590628,14.6191076 L23.5906278,14.6191076 Z M23.5906278,9.27986547 C23.3580874,9.27986547 23.1691031,9.4688491 23.1691031,9.70139013 C23.1691031,9.77867015 23.1915828,9.8496275 23.2281164,9.91215247 C23.3004759,9.7863948 23.4353668,9.70139013 23.5906276,9.70139013 C23.7465896,9.70139013 23.8807757,9.7863948 23.9538406,9.91215247 C23.9903742,9.8496275 24.0121527,9.77867015 24.0121527,9.70139013 C24.0121527,9.46884973 23.82387,9.27986547 23.590628,9.27986547 L23.5906278,9.27986547 Z M24.6872242,2.3662287 L24.6633392,2.57629004 C24.8804244,2.60087947 25.0862696,2.63389454 25.2759536,2.67534854 L25.3209162,2.46950013 C25.1242045,2.42665047 24.9113354,2.39222012 24.6872234,2.3662287 L24.6872242,2.3662287 Z M23.2217937,40.1038565 L22.7475785,40.1038565 L22.7475785,40.3146188 L23.2217937,40.3146188 L23.2217937,40.1038565 L23.2217937,40.1038565 Z M24.0416592,2.5285157 L24.0500883,2.31775336 C23.8484593,2.31002859 23.6250523,2.30721782 23.4121824,2.31072967 L23.4156942,2.521492 C23.6243468,2.51798015 23.8435417,2.52079091 24.0416583,2.5285157 L24.0416592,2.5285157 Z M25.9412601,2.64780717 L25.868193,2.84522319 C26.0726327,2.92179568 26.2552939,3.01312932 26.410554,3.11570082 L26.5271783,2.94006329 C26.3585678,2.82835947 26.1611516,2.73000196 25.941259,2.6478076 L25.9412601,2.64780717 Z M23.5906278,25.2978027 C23.3580874,25.2978027 23.1691031,25.4867863 23.1691031,25.7193274 C23.1691031,25.7966074 23.1915828,25.8675647 23.2281164,25.9300897 C23.3004759,25.804332 23.4353668,25.7193274 23.5906276,25.7193274 C23.7465896,25.7193274 23.8807757,25.804332 23.9538406,25.9300897 C23.9903742,25.8675647 24.0121527,25.7966074 24.0121527,25.7193274 C24.0121527,25.486787 23.82387,25.2978027 23.590628,25.2978027 L23.5906278,25.2978027 Z M24.6802691,36.3980224 L24.4695067,36.3980224 L24.4695067,36.8195471 L24.6802691,36.8195471 L24.6802691,36.3980224 L24.6802691,36.3980224 Z M24.6802691,31.3397265 L24.4695067,31.3397265 L24.4695067,31.7612511 L24.6802691,31.7612511 L24.6802691,31.3397265 L24.6802691,31.3397265 Z M24.6802691,32.6043004 L24.4695067,32.6043004 L24.4695067,33.0258251 L24.6802691,33.0258251 L24.6802691,32.6043004 L24.6802691,32.6043004 Z M23.5906278,36.3980224 C23.7465898,36.3980224 23.8807759,36.4830336 23.9538409,36.6087848 C23.9903744,36.5462598 24.0121529,36.4753024 24.0121529,36.3980224 C24.0121529,36.1647802 23.8238703,35.9764978 23.5906282,35.9764978 C23.3580878,35.9764978 23.1691036,36.1647804 23.1691036,36.3980224 C23.1691036,36.4753024 23.1915833,36.5462598 23.2281168,36.6087848 C23.3004764,36.4830336 23.4353672,36.3980224 23.590628,36.3980224 L23.5906278,36.3980224 Z M24.6802691,30.0751525 L24.4695067,30.0751525 L24.4695067,30.4966771 L24.6802691,30.4966771 L24.6802691,30.0751525 L24.6802691,30.0751525 Z M24.6802691,33.8688744 L24.4695067,33.8688744 L24.4695067,34.2903991 L24.6802691,34.2903991 L24.6802691,33.8688744 L24.6802691,33.8688744 Z M24.6802691,35.1334484 L24.4695067,35.1334484 L24.4695067,35.5549731 L24.6802691,35.5549731 L24.6802691,35.1334484 L24.6802691,35.1334484 Z M24.6802691,38.9271704 L24.4695067,38.9271704 L24.4695067,39.3486951 L24.6802691,39.3486951 L24.6802691,38.9271704 L24.6802691,38.9271704 Z M24.6802691,28.8105785 L24.4695067,28.8105785 L24.4695067,29.2321031 L24.6802691,29.2321031 L24.6802691,28.8105785 L24.6802691,28.8105785 Z M22.7743453,2.34367713 C22.5502333,2.36334606 22.3366636,2.39214825 22.138547,2.429383 L22.1771869,2.6359324 C22.3682771,2.6008076 22.5755277,2.57340744 22.7926129,2.55373847 L22.7743462,2.34367713 L22.7743453,2.34367713 Z M24.6802691,37.6625964 L24.4695067,37.6625964 L24.4695067,38.0841211 L24.6802691,38.0841211 L24.6802691,37.6625964 L24.6802691,37.6625964 Z M27.6478027,40.3146188 L28.2800897,40.3146188 L28.2800897,40.1038565 L27.6478027,40.1038565 L27.6478027,40.3146188 L27.6478027,40.3146188 Z M26.3832287,40.3146188 L27.0155157,40.3146188 L27.0155157,40.1038565 L26.3832287,40.1038565 L26.3832287,40.3146188 L26.3832287,40.3146188 Z M27.9877623,15.6750269 L27.9877623,15.8808688 L28.6059978,15.8808688 L28.6059978,15.6750269 L27.9877623,15.6750269 L27.9877623,15.6750269 Z M29.5446637,40.3146188 L29.5446637,40.1038565 L28.9123767,40.1038565 L28.9123767,40.3146188 L29.5446637,40.3146188 L29.5446637,40.3146188 Z M27.3702287,15.6750269 L26.7519932,15.6750269 L26.7519932,15.8808688 L27.3702287,15.8808688 L27.3702287,15.6750269 L27.3702287,15.6750269 Z M1.07769103,32.737713 L10.3477139,6.84830045 L10.3224218,6.70568474 L10.5598793,6.55323445 C11.8181304,5.74812023 17.6695882,3.44027481 18.5829057,3.08197884 C18.6412163,2.84100584 18.711471,2.63797427 18.7957736,2.48973669 L18.8091231,2.49535823 C19.3669393,1.58064971 20.0940694,0.470629842 23.6355805,0.470629842 C23.7086442,0.470629842 23.7824091,0.470629842 23.8575828,0.471337357 C27.3197124,0.515595549 28.1170895,1.93402794 28.2976496,2.49676126 L28.3138099,2.48973756 C28.4002199,2.64078566 28.4711773,2.84943931 28.5308951,3.09743492 C29.5530903,3.49858308 35.2731821,5.75795106 36.5166798,6.55324164 L36.7541373,6.70569194 L36.7225242,6.87992073 L45.9813135,32.7377189 L46.1169055,32.6962715 L36.7225329,6.45846878 L36.754146,6.28423999 L36.5166885,6.13178969 C35.2731886,5.33650965 29.553101,3.07714799 28.5309037,2.67598296 C28.4711863,2.42798525 28.400229,2.21933265 28.3138185,2.06828561 L28.2976582,2.07530931 C28.1171068,1.5125781 27.319721,0.0941454956 23.8575914,0.0498854059 C23.782418,0.0491778915 23.7086531,0.0491778915 23.6355891,0.0491778915 C20.0940865,0.0491778915 19.3669564,1.15919776 18.8091317,2.07390628 L18.7957822,2.06828474 C18.7114786,2.21652211 18.6412239,2.41955389 18.5829144,2.66052689 C17.6696095,3.01882496 11.818139,5.32667039 10.5598879,6.1317825 L10.3224304,6.28423279 L10.3477225,6.4268485 L0.941399673,32.6962655 L1.07769272,32.737713 L1.07769103,32.737713 Z M21.5125112,2.58542152 C21.2933163,2.65637888 21.0923923,2.74208475 20.914648,2.84044184 L21.0165173,3.02450522 C21.182317,2.9331779 21.3712998,2.85238616 21.5778469,2.78564195 L21.512511,2.58542152 L21.5125112,2.58542152 Z M32.0738117,40.3146188 L32.0738117,40.1038565 L31.4415247,40.1038565 L31.4415247,40.3146188 L32.0738117,40.3146188 L32.0738117,40.3146188 Z M30.8092377,40.3146188 L30.8092377,40.1038565 L30.1769507,40.1038565 L30.1769507,40.3146188 L30.8092377,40.3146188 L30.8092377,40.3146188 Z M32.6534081,20.9771749 L32.6534081,20.5556502 C32.6534081,21.3263343 32.0260382,21.9544082 31.254648,21.9544082 L27.8346709,21.9544082 C27.0632829,21.9544082 26.435913,21.3263343 26.435913,20.5556502 L26.435913,20.9771749 C26.435913,21.747859 27.0632829,22.3759328 27.8346709,22.3759328 L31.254648,22.3759328 C32.0260382,22.3759328 32.6534081,21.747859 32.6534081,20.9771749 L32.6534081,20.9771749 Z M20.3849327,3.23309417 C20.285173,3.33355488 20.2015706,3.44104578 20.131314,3.55345081 C19.8889394,3.16634996 19.7533476,2.8902513 19.6767713,2.69845758 C19.6465621,2.74552671 19.6163527,2.79260216 19.5875489,2.83967108 C19.614949,2.98087826 19.7224365,3.32301866 20.1313136,3.9749761 C20.1741698,3.90682948 20.2233484,3.84149378 20.276039,3.77756009 C20.2704175,3.76913423 20.2640949,3.76000084 20.2591776,3.75226966 C20.3280253,3.62089686 20.4200601,3.49654751 20.5345745,3.38133217 L20.3849317,3.2330948 L20.3849327,3.23309417 Z M24.6802691,40.6132691 L24.6802691,40.1917444 L24.4863681,40.1917444 L24.4863681,40.103929 L23.8540811,40.103929 L23.8540811,40.3146913 L24.4695071,40.3146913 L24.4695071,40.5254537 L24.4863685,40.5254537 L24.4863685,40.6132691 L24.6802694,40.6132691 L24.6802691,40.6132691 Z M29.2236726,15.6750269 L29.2236726,15.8808688 L29.8419081,15.8808688 L29.8419081,15.6750269 L29.2236726,15.6750269 L29.2236726,15.6750269 Z M26.918565,4.06413004 C26.8967863,4.02408478 26.8721971,3.9826371 26.841285,3.94048211 L27.0127062,3.81683417 C27.0239461,3.83299125 27.0330794,3.84844726 27.042914,3.86461083 C27.093498,3.78100837 27.1405671,3.70231962 27.1806126,3.63066043 C27.4194758,3.20351473 27.4953503,2.95762675 27.5192381,2.84873428 C27.5220489,2.83819231 27.5508512,2.84170416 27.5473392,2.83046753 L27.6126751,2.80166517 L27.5115101,2.8129018 C27.5108058,2.81009103 27.4988648,2.74545638 27.4510915,2.64499567 C27.4005074,2.77917919 27.3183101,2.9632489 27.1806117,3.20913688 C27.1405665,3.28079523 27.0934973,3.35948377 27.0429131,3.44308728 C27.0330786,3.42692377 27.0239453,3.41146787 27.0127054,3.39531062 L26.8412842,3.51895856 C26.872196,3.56111356 26.8967855,3.60256102 26.9185642,3.6426065 C26.3979812,4.45614699 25.4123153,5.75022982 23.5547974,7.71875 C21.9277122,5.99541596 20.9666359,4.78845807 20.3989897,3.9601621 C20.3455982,4.02901626 20.2978247,4.09996708 20.2591848,4.173736 C20.8036534,5.00273802 21.7872117,6.26731201 23.5548121,8.14028309 C25.412328,6.17176291 26.397996,4.87768219 26.9185789,4.06413959 L26.918565,4.06413004 Z M25.7509417,40.3146188 L25.7509417,40.1038565 L25.1186547,40.1038565 L25.1186547,40.3146188 L25.7509417,40.3146188 L25.7509417,40.3146188 Z M30.4593722,15.6750269 L30.4593722,15.8808688 L31.0776077,15.8808688 L31.0776077,15.6750269 L30.4593722,15.6750269 L30.4593722,15.6750269 Z M27.9527758,6.4065426 C27.9478586,7.41117498 27.910624,8.452343 27.8593387,9.33965874 L24.7133526,8.13480004 C24.6192112,8.23737048 24.524369,8.33994092 24.4253101,8.44602857 L27.859324,9.76118341 C27.917636,8.74882027 27.9576815,7.5362287 27.952761,6.4065426 L27.9527758,6.4065426 Z M32.3134484,15.6750269 L31.695213,15.6750269 L31.695213,15.8808688 L32.3134484,15.8808688 L32.3134484,15.6750269 L32.3134484,15.6750269 Z M33.0749327,14.4435426 L26.0143946,14.4435426 L26.0143946,14.8650673 L33.0749327,14.8650673 L33.0749327,14.4435426 L33.0749327,14.4435426 Z M33.3383857,40.1038565 L32.7060987,40.1038565 L32.7060987,40.3146188 L33.3383857,40.3146188 L33.3383857,40.1038565 L33.3383857,40.1038565 Z M2.16943991,32.1890987 L2.03314687,32.5691748 L7.40617422,34.2082039 L11.7879231,21.8006254 L11.7879231,21.3791008 L7.40617422,33.7866792 L2.16942579,32.1890965 L2.16943991,32.1890987 Z M2.61977578,34.6767265 C2.77574033,34.6767265 2.90992596,34.7617311 2.98299094,34.8874888 C3.0195228,34.8249638 3.0413015,34.7540065 3.0413015,34.6767265 C3.0413015,34.4441861 2.85302056,34.2552018 2.61977684,34.2552018 C2.38723643,34.2552018 2.19825217,34.4441854 2.19825217,34.6767265 C2.19825217,34.7540065 2.22073356,34.8249638 2.25726626,34.8874888 C2.32962729,34.7617311 2.46451518,34.6767265 2.61977747,34.6767265 L2.61977578,34.6767265 Z M12.6309865,41.5265022 L21.9045291,41.5265022 L21.9045291,41.1049776 L12.6309865,41.1049776 L12.6309865,41.5265022 L12.6309865,41.5265022 Z M5.94419327,36.9951121 L1.30883408,35.4993993 L1.18448515,35.8808791 L5.94419412,37.4166368 L6.84414927,34.9184076 L6.70715334,34.8762526 L5.9441937,36.9951096 L5.94419327,36.9951121 Z M0.121546637,36.0017892 L0.245193731,36.0418345 L1.17535745,33.188808 L1.050305,33.150866 L0.121544951,36.0017848 L0.121546637,36.0017892 Z M13.1052018,40.1038565 L12.6309865,40.1038565 L12.6309865,40.3146188 L13.1052018,40.3146188 L13.1052018,40.1038565 L13.1052018,40.1038565 Z M14.3697758,40.3146188 L14.3697758,40.1038565 L13.7374888,40.1038565 L13.7374888,40.3146188 L14.3697758,40.3146188 L14.3697758,40.3146188 Z M20.0603587,40.1038565 L20.0603587,40.3146188 L20.6926457,40.3146188 L20.6926457,40.1038565 L20.0603587,40.1038565 L20.0603587,40.1038565 Z M12.6309865,19.1330045 C12.6309865,15.2163448 11.6593722,9.10914798 11.3186412,7.08863274 C11.2961598,7.10057687 11.2729759,7.11251464 11.2526011,7.12375754 C11.5069217,8.5976923 12.6309868,15.3434885 12.6309868,19.5545199 L12.6309868,19.1329952 L12.6309865,19.1330045 Z M44.0170807,34.6767265 C44.0170807,34.7540065 44.0395604,34.8249638 44.0753896,34.8874888 C44.1484533,34.7617311 44.2833412,34.6767265 44.4386047,34.6767265 C44.5945668,34.6767265 44.7287528,34.7617311 44.8018178,34.8874888 C44.837647,34.8249638 44.8601298,34.7540065 44.8601298,34.6767265 C44.8601298,34.4441861 44.6718472,34.2552018 44.4386052,34.2552018 C44.2060606,34.2552018 44.0170805,34.4441854 44.0170805,34.6767265 L44.0170807,34.6767265 Z M15.6343498,40.3146188 L15.6343498,40.1038565 L15.0020628,40.1038565 L15.0020628,40.3146188 L15.6343498,40.3146188 L15.6343498,40.3146188 Z M41.1140404,36.9951121 L40.3510807,34.8762552 L40.2140865,34.9184102 L41.1140395,37.4166393 L45.8737485,35.8808816 L45.7493962,35.4994018 L41.114037,36.9951146 L41.1140404,36.9951121 Z M46.0087848,33.1508072 L45.8837315,33.1887492 L46.8131933,36.0417757 L46.9375423,36.0017304 L46.0087843,33.1508116 L46.0087848,33.1508072 Z M44.8896368,32.1890987 L39.6521928,33.7866813 L35.2880004,21.4289692 L35.2880004,21.8504939 L39.6521928,34.208206 L45.0252202,32.5691769 L44.8896313,32.1891008 L44.8896368,32.1890987 Z M21.3249327,40.3146188 L21.9045291,40.3146188 L21.9045291,40.1038565 L21.3249327,40.1038565 L21.3249327,40.3146188 L21.3249327,40.3146188 Z M35.7579372,7.08856951 C35.4172041,9.10907843 34.4448879,15.2162605 34.4448879,19.1329413 L34.4448879,19.5544659 C34.4448879,15.3434345 35.568953,8.5976278 35.8232714,7.12370359 C35.8028982,7.11246053 35.7797142,7.10052289 35.7579355,7.08857878 L35.7579372,7.08856951 Z M24.6802691,41.2455561 L24.4695067,41.2455561 L24.4695067,41.1050501 L22.7475785,41.1050501 L22.7475785,41.5265747 L34.4448879,41.5265747 L34.4448879,41.1050501 L24.6802691,41.1050501 L24.6802691,41.2455561 L24.6802691,41.2455561 Z M19.2510314,9.33951121 C19.1997462,8.45149574 19.1625116,7.40962798 19.15689,6.40428744 C19.1519727,7.53467749 19.1927208,8.74796457 19.2510314,9.76103587 L22.6843498,8.44588103 C22.5852913,8.33979234 22.4904489,8.2372219 22.3963072,8.13465251 L19.2510377,9.33951121 L19.2510314,9.33951121 Z M33.9706726,40.3146188 L34.4448879,40.3146188 L34.4448879,40.1038565 L33.9706726,40.1038565 L33.9706726,40.3146188 L33.9706726,40.3146188 Z M24.6802691,19.9585605 L24.4695067,19.9585605 L24.4695067,20.3800852 L24.6802691,20.3800852 L24.6802691,19.9585605 L24.6802691,19.9585605 Z M24.6802691,27.5460045 L24.4695067,27.5460045 L24.4695067,27.9675291 L24.6802691,27.9675291 L24.6802691,27.5460045 L24.6802691,27.5460045 Z M24.6802691,21.2231345 L24.4695067,21.2231345 L24.4695067,21.6446592 L24.6802691,21.6446592 L24.6802691,21.2231345 L24.6802691,21.2231345 Z M24.6802691,18.6939865 L24.4695067,18.6939865 L24.4695067,19.1155112 L24.6802691,19.1155112 L24.6802691,18.6939865 L24.6802691,18.6939865 Z M24.6802691,17.4294126 L24.4695067,17.4294126 L24.4695067,17.8509372 L24.6802691,17.8509372 L24.6802691,17.4294126 L24.6802691,17.4294126 Z M24.6802691,16.1648386 L24.4695067,16.1648386 L24.4695067,16.5863632 L24.6802691,16.5863632 L24.6802691,16.1648386 L24.6802691,16.1648386 Z M24.6802691,26.2814305 L24.4695067,26.2814305 L24.4695067,26.7029552 L24.6802691,26.7029552 L24.6802691,26.2814305 L24.6802691,26.2814305 Z M24.6802691,25.0168565 L24.4695067,25.0168565 L24.4695067,25.4383812 L24.6802691,25.4383812 L24.6802691,25.0168565 L24.6802691,25.0168565 Z M16.8989238,40.3146188 L16.8989238,40.1038565 L16.2666368,40.1038565 L16.2666368,40.3146188 L16.8989238,40.3146188 L16.8989238,40.3146188 Z M24.6802691,22.4877085 L24.4695067,22.4877085 L24.4695067,22.9092332 L24.6802691,22.9092332 L24.6802691,22.4877085 L24.6802691,22.4877085 Z M24.6802691,23.7522825 L24.4695067,23.7522825 L24.4695067,24.1738072 L24.6802691,24.1738072 L24.6802691,23.7522825 L24.6802691,23.7522825 Z M18.4227354,4.0514843 C18.4100902,4.05710584 18.395337,4.06272093 18.3819875,4.06764139 C18.325785,4.78704278 18.3082211,5.59988143 18.3124372,6.38883018 C18.3166517,5.56966865 18.346861,4.74769134 18.4227356,4.05147592 L18.4227354,4.0514843 Z M18.7957848,40.3146188 L19.4280717,40.3146188 L19.4280717,40.1038565 L18.7957848,40.1038565 L18.7957848,40.3146188 L18.7957848,40.3146188 Z M24.6802691,14.9002646 L24.4695067,14.9002646 L24.4695067,15.3217892 L24.6802691,15.3217892 L24.6802691,14.9002646 L24.6802691,14.9002646 Z M28.6889686,4.06560538 C28.7641389,4.75971529 28.7936454,5.57677341 28.7978617,6.39103049 C28.8020779,5.60628646 28.7852165,4.7983691 28.7290109,4.08177085 C28.7163657,4.07614931 28.7016139,4.0705278 28.6889688,4.06560734 L28.6889686,4.06560538 Z M18.1634978,40.3146188 L18.1634978,40.1038565 L17.5312108,40.1038565 L17.5312108,40.3146188 L18.1634978,40.3146188 L18.1634978,40.3146188 Z M24.6802691,12.3711166 L24.4695067,12.3711166 L24.4695067,12.7926413 L24.6802691,12.7926413 L24.6802691,12.3711166 L24.6802691,12.3711166 Z M24.6802691,9.84196861 L24.4695067,9.84196861 L24.4695067,10.2634933 L24.6802691,10.2634933 L24.6802691,9.84196861 L24.6802691,9.84196861 Z M24.6802691,13.6356906 L24.4695067,13.6356906 L24.4695067,14.0572152 L24.6802691,14.0572152 L24.6802691,13.6356906 L24.6802691,13.6356906 Z M24.6802691,11.1065426 L24.4695067,11.1065426 L24.4695067,11.5280673 L24.6802691,11.5280673 L24.6802691,11.1065426 L24.6802691,11.1065426 Z" id="Shape"></path>
                        </g>
                    </g>
                </g>
            </g>
        </g>
    </g>
</svg>